<svg width="24" height="24" viewBox="0 0 24 24" fill="none" xmlns="http://www.w3.org/2000/svg">
<g id="bell">
<path id="Vector" d="M11.9909 1.99878C8.43863 1.99878 5.99093 4.44679 5.99093 7.9988C5.99093 8.4838 5.99093 9.9688 5.99093 9.9988C5.99093 10.3208 5.82833 10.5398 5.27213 10.9988C5.20903 11.0508 4.94453 11.2778 4.86593 11.3428C3.60053 12.3888 2.97773 13.3688 2.99093 14.9988C3.00423 16.6468 4.34763 17.9798 5.99093 17.9988H9.16693C9.16693 17.9988 8.99093 18.6098 8.99093 18.9988C8.99093 20.6558 10.3339 21.9988 11.9909 21.9988C13.6479 21.9988 14.9909 20.6558 14.9909 18.9988C14.9909 18.6098 14.8229 17.9988 14.8229 17.9988H17.9909C19.6309 18.0048 20.9929 16.6538 20.9909 14.9988C20.9889 13.3808 20.3649 12.3838 19.1159 11.3428C19.0339 11.2738 18.7439 11.0528 18.6779 10.9988C18.1339 10.5448 17.9909 10.3168 17.9909 9.9988C17.9909 8.7488 17.9909 7.9988 17.9909 7.9988C17.9909 4.44679 15.5429 1.99878 11.9909 1.99878ZM11.9909 3.99879C14.4389 3.99879 15.9909 5.55079 15.9909 7.9988C15.9909 7.9988 15.9909 8.7488 15.9909 9.9988C15.9909 11.0608 16.4389 11.7308 17.3969 12.5298C17.4729 12.5928 17.7939 12.8448 17.8659 12.9048C18.7039 13.6038 18.9899 14.0768 18.9909 14.9988C18.9919 15.5428 18.5259 16.0008 17.9909 15.9988C17.8019 15.9978 14.8909 15.9978 11.9909 15.9988C9.09123 15.9998 6.20343 16.0008 5.99093 15.9988C5.43273 15.9918 4.99543 15.5538 4.99093 14.9988C4.98353 14.0788 5.26943 13.6048 6.11593 12.9048C6.18503 12.8478 6.48073 12.5898 6.55343 12.5298C7.52663 11.7258 7.99093 11.0708 7.99093 9.9988C7.99093 9.9688 7.99093 8.4838 7.99093 7.9988C7.99093 5.55079 9.54323 3.99879 11.9909 3.99879ZM11.9909 17.9988C12.5429 17.9988 12.9909 18.4468 12.9909 18.9988C12.9909 19.5508 12.5429 19.9988 11.9909 19.9988C11.4389 19.9988 10.9909 19.5508 10.9909 18.9988C10.9909 18.4468 11.4389 17.9988 11.9909 17.9988Z" fill="#111827"/>
</g>
</svg>
