<svg width="107" height="94" viewBox="0 0 107 94" fill="none" xmlns="http://www.w3.org/2000/svg">
<g id="Group 15">
<path id="Vector" d="M71.5716 90H92.6416C93.9133 90 95.1725 89.7485 96.3466 89.26C97.5207 88.7715 98.5866 88.0556 99.483 87.1536C100.379 86.2515 101.088 85.1811 101.569 84.0039C102.051 82.8267 102.294 81.566 102.286 80.2943C102.295 78.5908 101.85 76.9156 100.996 75.4414L62.3573 9.28286C61.4151 7.67562 60.0691 6.34258 58.4528 5.41591C56.8365 4.48925 55.0061 4.00114 53.143 4C51.28 4.00114 49.4496 4.48925 47.8333 5.41591C46.217 6.34258 44.871 7.67562 43.9288 9.28286L5.2902 75.4414C4.43649 76.9156 3.9912 78.5908 4.0002 80.2943C3.9921 81.566 4.23557 82.8267 4.71662 84.0039C5.19766 85.1811 5.90677 86.2515 6.80313 87.1536C7.69949 88.0556 8.76541 88.7715 9.93953 89.26C11.1136 89.7485 12.3728 90 13.6445 90H34.7145" stroke="#FFA800" stroke-width="8" stroke-linecap="round" stroke-linejoin="round"/>
<path id="Vector_2" d="M53.1428 40.8572V71.5715" stroke="#FFA800" stroke-width="8" stroke-linecap="round" stroke-linejoin="round"/>
<path id="Vector_3" d="M53 90H53" stroke="#FFA800" stroke-width="8" stroke-linecap="round" stroke-linejoin="round"/>
</g>
</svg>
