<svg width="24" height="24" viewBox="0 0 24 24" fill="none" xmlns="http://www.w3.org/2000/svg">
<g id="box-arrow-right">
<path id="Vector" d="M2.99074 6.99072C2.99074 4.78172 4.78164 2.99072 6.99074 2.99072H10.9907C13.1997 2.99072 14.9907 4.78172 14.9907 6.99072C14.9907 7.54272 14.5427 7.99072 13.9907 7.99072C13.4387 7.99072 12.9907 7.54272 12.9907 6.99072C12.9907 5.88572 12.0957 4.99072 10.9907 4.99072H6.99074C5.88614 4.99072 4.99074 5.88572 4.99074 6.99072V16.9907C4.99074 18.0957 5.88614 18.9907 6.99074 18.9907H10.9907C12.0957 18.9907 12.9907 18.0957 12.9907 16.9907C12.9907 16.4387 13.4387 15.9907 13.9907 15.9907C14.5427 15.9907 14.9907 16.4387 14.9907 16.9907C14.9907 19.1997 13.1997 20.9907 10.9907 20.9907H6.99074C4.78164 20.9907 2.99074 19.1997 2.99074 16.9907V6.99072ZM9.99074 11.9907C9.99074 11.4387 10.4387 10.9907 10.9907 10.9907H18.5537L16.5847 8.99072L17.9907 7.58471L21.7097 11.2717C22.0997 11.6627 22.0997 12.3187 21.7097 12.7097L17.9907 16.3967L16.5847 14.9907L18.5537 12.9907H10.9907C10.4387 12.9907 9.99074 12.5427 9.99074 11.9907Z" fill="#E21414"/>
</g>
</svg>
