<svg width="14" height="15" viewBox="0 0 14 15" fill="none" xmlns="http://www.w3.org/2000/svg">
    <path d="M4.07796 2.24902C2.78932 2.24902 1.74463 3.29377 1.74463 4.58235V10.4157C1.74463 11.7043 2.78932 12.749 4.07796 12.749H9.91128C11.1999 12.749 12.2446 11.7043 12.2446 10.4157V4.58235C12.2446 3.29377 11.1999 2.24902 9.91128 2.24902H4.07796ZM9.32794 5.63936C9.47722 5.63994 9.63332 5.68951 9.74724 5.80385C9.97504 6.03135 9.97504 6.39593 9.74724 6.62402L7.55975 8.81151C6.88874 9.48234 5.86214 9.38201 5.33574 8.59276L4.75241 7.71776C4.57373 7.45001 4.64846 7.07609 4.9165 6.89759C5.1846 6.71851 5.5581 6.79318 5.73684 7.06151L6.32017 7.93651C6.43812 8.11326 6.58903 8.12319 6.73941 7.97269L8.90864 5.80385C9.02257 5.6901 9.17867 5.63936 9.32794 5.63936Z" fill="white"/>
</svg>
