<svg width="16" height="16" viewBox="0 0 16 16" fill="none" xmlns="http://www.w3.org/2000/svg">
<g id="clock-fill">
<path id="Vector" d="M8.00946 1.33252C4.32758 1.33252 1.34277 4.31719 1.34277 7.99919C1.34277 11.6812 4.32758 14.6659 8.00946 14.6659C11.6913 14.6659 14.6761 11.6812 14.6761 7.99919C14.6761 4.31719 11.6913 1.33252 8.00946 1.33252ZM8.00946 3.99919C8.37766 3.99919 8.67613 4.29785 8.67613 4.66585V7.70719L10.4887 9.51986C10.749 9.78052 10.749 10.2178 10.4887 10.4785C10.2283 10.7385 9.79066 10.7385 9.53026 10.4785L7.53026 8.47852C7.40526 8.35318 7.34279 8.17585 7.34279 7.99919V4.66585C7.34279 4.29785 7.64126 3.99919 8.00946 3.99919Z" fill="#9EA3AE"/>
</g>
</svg>
