<svg width="14" height="15" viewBox="0 0 14 15" fill="none" xmlns="http://www.w3.org/2000/svg">
<g id="clock-fill">
<path id="Vector" d="M7.00812 1.66602C3.7865 1.66602 1.1748 4.2776 1.1748 7.49935C1.1748 10.7211 3.7865 13.3327 7.00812 13.3327C10.2297 13.3327 12.8414 10.7211 12.8414 7.49935C12.8414 4.2776 10.2297 1.66602 7.00812 1.66602ZM7.00812 3.99935C7.3303 3.99935 7.59146 4.26068 7.59146 4.58268V7.24386L9.17742 8.82994C9.40521 9.05802 9.40521 9.44068 9.17742 9.66876C8.94957 9.89626 8.56667 9.89626 8.33882 9.66876L6.58883 7.91876C6.47945 7.8091 6.42479 7.65393 6.42479 7.49935V4.58268C6.42479 4.26068 6.68595 3.99935 7.00812 3.99935Z" fill="white"/>
</g>
</svg>
