<svg width="24" height="24" viewBox="0 0 24 24" fill="none" xmlns="http://www.w3.org/2000/svg">
<g id="clock-history">
<path id="Vector" d="M18.6285 18.1861L18.6272 18.1847C18.5257 18.0837 18.373 18.0866 18.2772 18.1827L18.2768 18.183C16.6381 19.8239 14.4024 20.746 12.0422 20.746C7.20003 20.746 3.27017 16.8313 3.27017 11.997C3.27017 7.16366 7.2001 3.24902 12.0422 3.24902C12.1839 3.24902 12.2952 3.13487 12.2952 2.99902C12.2952 2.86318 12.1839 2.74902 12.0422 2.74902C6.91624 2.74902 2.76416 6.89137 2.76416 11.997C2.76416 17.1027 6.91634 21.246 12.0422 21.246C14.5459 21.246 16.8968 20.2593 18.6252 18.5294L18.6285 18.1861ZM18.6285 18.1861C18.722 18.2786 18.727 18.4268 18.6255 18.529L18.6285 18.1861ZM16.3362 5.18604L16.7404 4.55433C16.4896 4.39381 16.2229 4.22594 15.9136 4.07524C15.8121 4.02463 15.7459 3.88293 15.8181 3.73609C15.8537 3.66376 15.8974 3.63307 15.942 3.61799C15.9902 3.60278 16.0485 3.60085 16.1301 3.641L16.1322 3.64204C16.4571 3.80059 16.7516 3.95411 17.0301 4.13149C17.1575 4.21268 17.1818 4.36411 17.1145 4.4697C17.0383 4.58813 16.8546 4.6271 16.7392 4.55357L16.3362 5.18604ZM16.3362 5.18604C16.8022 5.48304 17.4482 5.33902 17.7462 4.87402L15.1452 3.40503C14.9012 3.90103 15.0872 4.50502 15.5842 4.74902C15.8512 4.87902 16.0862 5.02604 16.3362 5.18604ZM18.9306 6.53301L18.932 6.53479C18.9553 6.56452 18.9798 6.59546 19.0052 6.62748C19.162 6.82565 19.3519 7.06554 19.5107 7.32045L19.5108 7.32064C19.5769 7.42678 19.7279 7.47214 19.8584 7.39138L19.859 7.39101C19.9264 7.34935 19.9552 7.29835 19.9654 7.25438C19.9757 7.21002 19.9723 7.15003 19.93 7.08169C19.7491 6.79105 19.5323 6.48295 19.3191 6.21225L18.9306 6.53301ZM18.9306 6.53301C18.8357 6.41291 18.8648 6.25824 18.9602 6.18284M18.9306 6.53301L18.9602 6.18284M20.5751 14.0175L20.5751 14.0176C20.5062 14.302 20.4021 14.5817 20.3175 14.8092C20.3003 14.8554 20.2839 14.8994 20.2688 14.9409L20.2684 14.9419C20.2492 14.9945 20.2534 15.042 20.2778 15.0893C20.3044 15.1411 20.3596 15.1973 20.4469 15.229L20.4474 15.2291C20.5336 15.2605 20.5988 15.2501 20.6387 15.2325C20.6757 15.2161 20.7145 15.1839 20.7394 15.1154L20.7396 15.1149L20.7423 15.1076C20.8713 14.7539 20.9845 14.4438 21.0603 14.1322L20.5751 14.0175ZM20.5751 14.0175C20.6089 13.878 20.7614 13.7885 20.892 13.82M20.5751 14.0175L20.892 13.82M18.9602 6.18284C19.0293 6.12931 19.1125 6.11241 19.1611 6.11774C19.2174 6.1249 19.2702 6.15022 19.319 6.21213L18.9602 6.18284ZM20.892 13.82C21.0009 13.8463 21.0989 13.9722 21.0604 14.1319L20.892 13.82ZM14.8908 15.184L14.8907 15.1839L11.8835 12.1857C11.8834 12.1856 11.8833 12.1855 11.8832 12.1853C11.8155 12.1175 11.7902 12.0367 11.7902 11.997V6.99805C11.7902 6.86174 11.9019 6.74805 12.0422 6.74805C12.1839 6.74805 12.2952 6.8622 12.2952 6.99805V11.56V11.8714L12.5157 12.0912L15.2418 14.8083C15.2419 14.8085 15.2421 14.8086 15.2422 14.8087C15.3403 14.9073 15.3392 15.0876 15.2425 15.184C15.1432 15.283 14.9901 15.283 14.8908 15.184ZM20.6094 10.0538L20.6092 10.053C20.578 9.91267 20.6609 9.79 20.7903 9.76154C20.8648 9.74514 20.9447 9.75934 21.01 9.7989C21.0736 9.83737 21.1074 9.88907 21.1188 9.94074L21.1194 9.94325C21.1885 10.2512 21.2217 10.5662 21.2612 10.9412L21.2623 10.9517L21.2624 10.9532C21.2778 11.0963 21.1835 11.2063 21.0527 11.2201C20.9008 11.2361 20.7934 11.1369 20.78 11.0126C20.7441 10.6704 20.6732 10.3416 20.6094 10.0538Z" fill="#111827" stroke="#9EA3AE" stroke-width="1.5"/>
</g>
</svg>
