<svg width="18" height="18" viewBox="0 0 18 18" fill="none" xmlns="http://www.w3.org/2000/svg">
<g id="clock-history">
<path id="Vector" d="M8.69678 1.86963C4.74839 1.86963 1.54717 5.06084 1.54717 8.99782C1.54717 12.9348 4.74839 16.1267 8.69678 16.1267C10.6239 16.1267 12.4363 15.3667 13.7688 14.0328C14.0476 13.7533 14.049 13.3077 13.7688 13.0303C13.4893 12.7523 13.0423 12.7509 12.7635 13.0303C11.6969 14.0984 10.2396 14.7008 8.69678 14.7008C5.53835 14.7008 2.97738 12.1477 2.97738 8.99782C2.97738 5.84866 5.53835 3.29555 8.69678 3.29555C9.09176 3.29555 9.41187 2.97615 9.41187 2.58259C9.41187 2.18904 9.09176 1.86963 8.69678 1.86963ZM11.3112 2.51558C11.138 2.57261 10.9961 2.69524 10.9091 2.87206C10.7351 3.22569 10.8677 3.65631 11.2221 3.83028C11.4125 3.92296 11.58 4.02778 11.7582 4.14185C12.0905 4.3536 12.551 4.25092 12.7635 3.9194C12.976 3.58716 12.8726 3.15082 12.5404 2.93907C12.3165 2.79648 12.0855 2.6767 11.8473 2.56049C11.6705 2.4735 11.4852 2.45925 11.3112 2.51558ZM13.8358 4.27518C13.6547 4.25379 13.4551 4.31011 13.2997 4.43132C12.9895 4.67444 12.9439 5.12432 13.1884 5.43375C13.3189 5.59987 13.4558 5.7667 13.5677 5.94636C13.7759 6.28074 14.2158 6.37629 14.5509 6.16881C14.8867 5.96134 14.9823 5.54567 14.7748 5.21129C14.635 4.98671 14.4689 4.75073 14.3049 4.54254C14.183 4.38783 14.0176 4.29728 13.8358 4.27518ZM8.69678 4.72078C8.30251 4.72078 7.98238 5.04019 7.98238 5.43375V8.99782C7.98238 9.18747 8.07149 9.3764 8.20553 9.51044L10.3501 11.6486C10.6296 11.9274 11.0766 11.9274 11.3561 11.6486C11.6349 11.3706 11.6349 10.9029 11.3561 10.6241L9.41187 8.68625V5.43375C9.41187 5.04019 9.09176 4.72078 8.69678 4.72078ZM14.819 6.88178C14.4333 6.96662 14.1973 7.34374 14.2828 7.72803C14.3285 7.93408 14.3727 8.14155 14.3948 8.35187C14.4361 8.74329 14.7841 9.01707 15.1769 8.97571C15.569 8.93436 15.8442 8.58789 15.8022 8.19648C15.7743 7.93268 15.748 7.67388 15.6902 7.4165C15.6054 7.03221 15.2047 6.79694 14.819 6.88178ZM15.132 9.7778C14.7484 9.68511 14.3534 9.92966 14.2607 10.3125C14.2108 10.5186 14.1317 10.7161 14.0597 10.9136C13.9242 11.2836 14.1353 11.67 14.5067 11.8048C14.8775 11.9395 15.2653 11.7741 15.4 11.4041C15.4906 11.156 15.5833 10.9043 15.646 10.6462C15.7387 10.264 15.5155 9.87048 15.132 9.7778Z" fill="black"/>
</g>
</svg>
