<svg width="24" height="24" viewBox="0 0 24 24" fill="none" xmlns="http://www.w3.org/2000/svg">
<g id="file-image">
<path id="Vector" d="M8.02832 1.99902C5.81932 1.99902 4.02832 3.79002 4.02832 5.99902V17.999C4.02832 18.532 4.14032 19.047 4.34032 19.53C4.34432 19.539 4.33732 19.552 4.34032 19.561C4.53032 20.009 4.81732 20.427 5.15332 20.78C5.44032 21.078 5.78632 21.302 6.15332 21.499C6.24232 21.547 6.30932 21.614 6.40332 21.655C6.89932 21.875 7.45132 21.999 8.02832 21.999H16.0283C16.6193 21.999 17.1673 21.868 17.6533 21.655C17.7443 21.615 17.8163 21.546 17.9033 21.499C18.2703 21.302 18.6163 21.078 18.9033 20.78C19.2393 20.427 19.5263 20.009 19.7163 19.561C19.7243 19.541 19.7393 19.519 19.7473 19.499C19.9373 19.027 20.0283 18.518 20.0283 17.999V16.999V5.99902C20.0283 3.79002 18.2373 1.99902 16.0283 1.99902H8.02832ZM8.02832 3.99902H16.0283C17.1333 3.99902 18.0283 4.89402 18.0283 5.99902L18.0313 12.395C17.1533 10.942 16.1833 9.99902 15.0283 9.99902C13.6013 9.99902 12.4873 11.331 11.3723 13.561C11.1903 13.926 11.0433 14.258 10.8773 14.64C10.1203 13.632 9.19332 12.999 8.02832 12.999C7.25032 12.999 6.58331 13.337 6.01431 13.902L6.02832 5.99902C6.02832 4.89402 6.92332 3.99902 8.02832 3.99902ZM9.02832 6.99902C8.47632 6.99902 8.02832 7.44702 8.02832 7.99902C8.02832 8.55102 8.47632 8.99902 9.02832 8.99902C9.58032 8.99902 10.0283 8.55102 10.0283 7.99902C10.0283 7.44702 9.58032 6.99902 9.02832 6.99902ZM15.0283 11.999C15.3513 11.999 16.1123 12.917 16.8723 14.437C17.1853 15.062 17.4843 15.76 17.7473 16.437C17.8763 16.769 17.9653 16.973 18.0283 17.155V17.999C18.0283 18.517 17.8183 19.003 17.4663 19.374C17.4633 19.377 17.4373 19.371 17.4343 19.374C17.0833 19.733 16.6083 19.999 16.0283 19.999H8.02832C6.94932 19.999 6.09933 19.131 6.05933 18.061C6.09033 17.955 6.09732 17.855 6.15332 17.687C6.29532 17.26 6.48933 16.828 6.68433 16.437C7.15633 15.494 7.64832 14.999 8.02832 14.999C8.49832 14.999 8.97633 15.374 9.43433 16.061C9.61933 16.338 9.80033 16.633 9.93433 16.937C10.0143 17.116 10.0693 17.246 10.0903 17.311C10.3943 18.223 11.6623 18.223 11.9663 17.311C12.0233 17.139 12.1523 16.842 12.3093 16.437C12.5723 15.76 12.8713 15.062 13.1843 14.437C13.9443 12.917 14.7053 11.999 15.0283 11.999Z" fill="#E21414"/>
</g>
</svg>
