<svg width="24" height="24" viewBox="0 0 24 24" fill="none" xmlns="http://www.w3.org/2000/svg">
<g id="gem2">
<path id="Vector" d="M0 -0.000244141H24V23.9998H0V-0.000244141Z" stroke="#9EA3AE" stroke-width="0.002" stroke-linecap="round" stroke-linejoin="round"/>
<path id="Vector_2" d="M5.99916 2.99048C5.95016 2.99048 5.72816 3.02748 5.65516 3.05348C5.39516 3.14448 5.19915 3.32048 5.09315 3.55348L2.18415 9.38548C2.18415 9.38548 2.00616 9.62648 1.99916 9.99348C1.99216 10.3605 2.26216 10.6535 2.26216 10.6535L11.2182 21.6235C11.6181 22.1125 12.3802 22.1125 12.7802 21.6235C13.0592 21.2825 21.7712 10.6045 21.7712 10.6045C21.7712 10.6045 21.9932 10.3225 21.9992 9.99348C22.0062 9.66448 21.8312 9.4315 21.8312 9.4315L18.9052 3.55348C18.7992 3.32048 18.6031 3.14448 18.3431 3.05348C18.2701 3.02748 18.0492 2.99048 17.9992 2.99048H5.99916ZM7.40516 4.99149H16.5931L15.1871 8.99348H8.81214L7.40516 4.99149ZM5.84315 6.55448L6.71815 8.99348H4.62416L5.84315 6.55448ZM18.1552 6.55448L19.3742 8.99348H17.2802L18.1552 6.55448ZM5.12416 10.9935H7.40516L9.15516 15.9335L5.12416 10.9935ZM9.53016 10.9935H14.4681L11.9992 17.9975L9.53016 10.9935ZM16.5931 10.9935H18.8742C17.9162 12.1645 16.5261 13.8795 14.8431 15.9335L16.5931 10.9935Z" fill="white"/>
</g>
</svg>
