<svg width="14" height="15" viewBox="0 0 14 15" fill="none" xmlns="http://www.w3.org/2000/svg">
<g id="gem2">
<path id="Vector" d="M3.49946 2.24463C3.47087 2.24463 3.34138 2.26621 3.29879 2.28138C3.14713 2.33446 3.03279 2.43713 2.97095 2.57305L1.27404 5.97504C1.27404 5.97504 1.17021 6.11563 1.16612 6.32971C1.16204 6.5438 1.31954 6.71471 1.31954 6.71471L6.54387 13.1139C6.7772 13.3991 7.22171 13.3991 7.45504 13.1139C7.61779 12.915 12.6998 6.68614 12.6998 6.68614C12.6998 6.68614 12.8293 6.52163 12.8328 6.32971C12.8369 6.1378 12.7348 6.00189 12.7348 6.00189L11.028 2.57305C10.9661 2.43713 10.8518 2.33446 10.7001 2.28138C10.6575 2.26621 10.5286 2.24463 10.4995 2.24463H3.49946ZM4.31963 3.41188H9.67929L8.85912 5.74638H5.14037L4.31963 3.41188ZM3.40845 4.32363L3.91887 5.74638H2.69737L3.40845 4.32363ZM10.5905 4.32363L11.3015 5.74638H10.08L10.5905 4.32363ZM2.98904 6.91305H4.31963L5.34046 9.79472L2.98904 6.91305ZM5.55921 6.91305H8.4397L6.99946 10.9987L5.55921 6.91305ZM9.67929 6.91305H11.0099C10.451 7.59613 9.6402 8.59655 8.65845 9.79472L9.67929 6.91305Z" fill="white"/>
</g>
</svg>
