<svg width="24" height="24" viewBox="0 0 24 24" fill="none" xmlns="http://www.w3.org/2000/svg">
<g id="geo2-fill">
<path id="Vector" d="M11.9978 2.01416C9.2364 2.01416 6.9977 4.25316 6.9978 7.01416C6.9978 7.95016 7.44 9.10115 8.2478 10.4832C8.5169 10.9432 8.8514 11.3972 9.1853 11.8892C9.6357 12.5532 10.1107 13.2372 10.5916 13.8582C10.7014 13.9992 10.85 14.1962 10.9978 14.3892V17.0142C10.9978 17.5662 11.4455 18.0142 11.9978 18.0142C12.5501 18.0142 12.9978 17.5662 12.9978 17.0142V14.3892C13.1455 14.1962 13.2941 13.9992 13.404 13.8582C13.8849 13.2382 14.3597 12.5532 14.8103 11.8892C15.1443 11.3972 15.4786 10.9432 15.7478 10.4832C16.5557 9.10115 16.9976 7.95016 16.9978 7.01416C16.9978 4.25316 14.7592 2.01416 11.9978 2.01416ZM11.9978 6.01416C12.5501 6.01416 12.9978 6.46216 12.9978 7.01416C12.9978 7.56616 12.5501 8.01416 11.9978 8.01416C11.4455 8.01416 10.9978 7.56616 10.9978 7.01416C10.9978 6.46216 11.4455 6.01416 11.9978 6.01416ZM7.654 13.7021C5.4383 14.4771 3.9978 15.8332 3.9978 17.5142C3.9978 20.1882 7.6504 22.0142 11.9978 22.0142C16.3452 22.0142 19.9978 20.1882 19.9978 17.5142C19.9978 15.8292 18.533 14.4761 16.3103 13.7021C15.7888 13.5201 15.2421 13.8052 15.0603 14.3262C14.8785 14.8482 15.1325 15.3952 15.654 15.5762C17.1644 16.1032 17.9978 16.8802 17.9978 17.5142C17.9978 18.7062 15.3824 20.0142 11.9978 20.0142C8.6132 20.0142 5.9978 18.7062 5.9978 17.5142C5.9978 16.8822 6.8058 16.1032 8.3103 15.5762C8.8316 15.3942 9.1177 14.8482 8.9353 14.3262C8.7529 13.8052 8.1753 13.5191 7.654 13.7021Z" fill="#E21414"/>
</g>
</svg>
