<svg width="24" height="24" viewBox="0 0 24 24" fill="none" xmlns="http://www.w3.org/2000/svg">
<g id="geo2">
<path id="Vector" d="M11.9978 2.01416C9.23641 2.01416 6.99781 4.25316 6.99781 7.01416C6.99781 7.95016 7.43991 9.10115 8.24781 10.4832C8.51691 10.9432 8.85131 11.3972 9.18531 11.8892C9.63571 12.5532 10.1108 13.2372 10.5918 13.8582C10.7018 13.9992 10.8498 14.1962 10.9978 14.3892V17.0142C10.9978 17.5662 11.4458 18.0142 11.9978 18.0142C12.5498 18.0142 12.9978 17.5662 12.9978 17.0142V14.3892C13.1458 14.1962 13.2938 13.9992 13.4038 13.8582C13.8848 13.2382 14.3598 12.5532 14.8098 11.8892C15.1438 11.3972 15.4788 10.9432 15.7478 10.4832C16.5558 9.10115 16.9978 7.95016 16.9978 7.01416C16.9978 4.25316 14.7588 2.01416 11.9978 2.01416ZM11.9978 4.01416C13.6548 4.01416 14.9978 5.35716 14.9978 7.01416C14.9978 7.49016 14.6368 8.35915 13.9978 9.45215C13.7528 9.87015 13.4958 10.3382 13.1858 10.7952C12.8118 11.3462 12.3998 11.8642 11.9978 12.3892C11.5958 11.8642 11.1848 11.3462 10.8098 10.7952C10.4998 10.3382 10.2428 9.87015 9.99781 9.45215C9.35901 8.35915 8.99781 7.49016 8.99781 7.01416C8.99781 5.35716 10.3408 4.01416 11.9978 4.01416ZM11.9978 6.01416C11.4458 6.01416 10.9978 6.46216 10.9978 7.01416C10.9978 7.56616 11.4458 8.01416 11.9978 8.01416C12.5498 8.01416 12.9978 7.56616 12.9978 7.01416C12.9978 6.46216 12.5498 6.01416 11.9978 6.01416ZM7.65401 13.7021C5.43831 14.4771 3.99781 15.8332 3.99781 17.5142C3.99781 20.1882 7.65041 22.0142 11.9978 22.0142C16.3448 22.0142 19.9978 20.1882 19.9978 17.5142C19.9978 15.8292 18.5328 14.4761 16.3098 13.7021C15.7888 13.5201 15.2418 13.8052 15.0598 14.3262C14.8788 14.8482 15.1328 15.3952 15.6538 15.5762C17.1648 16.1032 17.9978 16.8802 17.9978 17.5142C17.9978 18.7062 15.3828 20.0142 11.9978 20.0142C8.61321 20.0142 5.99781 18.7062 5.99781 17.5142C5.99781 16.8822 6.80581 16.1032 8.31031 15.5762C8.83161 15.3942 9.11771 14.8482 8.93531 14.3262C8.75291 13.8052 8.17531 13.5191 7.65401 13.7021Z" fill="#9EA3AE"/>
</g>
</svg>
