<svg width="24" height="24" viewBox="0 0 24 24" fill="none" xmlns="http://www.w3.org/2000/svg">
<g id="gift">
<path id="Vector" d="M0 0H24V24H0V0Z" stroke="#9EA3AE" stroke-width="0.002" stroke-linecap="round" stroke-linejoin="round"/>
<path id="Vector_2" d="M11.9983 4.39673L11.9987 4.3964L12.0009 4.39449L11.9987 4.39705C12.7326 3.54715 13.7875 2.99122 14.9983 2.99122C17.207 2.99122 18.9978 4.782 18.9978 6.99072H18.9983V6.99122H19.9983C20.55 6.99122 20.9978 7.439 20.9978 7.99072V11.9907C20.9978 12.5424 20.55 12.9902 19.9983 12.9902V12.9907H19.9978V16.9907C19.9978 19.1994 18.207 20.9902 15.9983 20.9902H7.99829C5.78957 20.9902 3.99879 19.1994 3.99879 16.9907V12.9907H3.99829V12.9902C3.44657 12.9902 2.99879 12.5424 2.99879 11.9907V11.9878V11.9847V11.9817V11.9785V11.9754V11.9721V11.9688V11.9655V11.9621V11.9586V11.9551V11.9515V11.9479V11.9442V11.9405V11.9367V11.9328V11.9289V11.925V11.921V11.9169V11.9128V11.9087V11.9044V11.9002V11.8959V11.8915V11.8871V11.8826V11.8781V11.8735V11.8689V11.8642V11.8595V11.8547V11.8499V11.845V11.8401V11.8352V11.8301V11.8251V11.82V11.8148V11.8096V11.8043V11.799V11.7937V11.7883V11.7829V11.7774V11.7718V11.7663V11.7606V11.755V11.7492V11.7435V11.7377V11.7318V11.7259V11.72V11.714V11.708V11.7019V11.6958V11.6896V11.6834V11.6772V11.6709V11.6646V11.6582V11.6518V11.6454V11.6389V11.6324V11.6258V11.6192V11.6125V11.6058V11.5991V11.5923V11.5855V11.5787V11.5718V11.5648V11.5579V11.5509V11.5438V11.5367V11.5296V11.5225V11.5153V11.508V11.5008V11.4935V11.4861V11.4788V11.4713V11.4639V11.4564V11.4489V11.4414V11.4338V11.4261V11.4185V11.4108V11.4031V11.3953V11.3875V11.3797V11.3719V11.364V11.356V11.3481V11.3401V11.3321V11.324V11.316V11.3079V11.2997V11.2915V11.2833V11.2751V11.2668V11.2586V11.2502V11.2419V11.2335V11.2251V11.2167V11.2082V11.1997V11.1912V11.1826V11.1741V11.1654V11.1568V11.1482V11.1395V11.1308V11.122V11.1133V11.1045V11.0957V11.0868V11.078V11.0691V11.0602V11.0512V11.0423V11.0333V11.0243V11.0152V11.0062V10.9971V10.988V10.9789V10.9697V10.9605V10.9514V10.9421V10.9329V10.9236V10.9144V10.9051V10.8958V10.8864V10.8771V10.8677V10.8583V10.8489V10.8394V10.83V10.8205V10.811V10.8015V10.792V10.7824V10.7728V10.7633V10.7537V10.744V10.7344V10.7248V10.7151V10.7054V10.6957V10.686V10.6763V10.6665V10.6568V10.647V10.6372V10.6274V10.6176V10.6078V10.5979V10.5881V10.5782V10.5683V10.5584V10.5485V10.5386V10.5286V10.5187V10.5087V10.4988V10.4888V10.4788V10.4688V10.4588V10.4488V10.4387V10.4287V10.4186V10.4086V10.3985V10.3884V10.3783V10.3682V10.3581V10.348V10.3379V10.3278V10.3176V10.3075V10.2973V10.2872V10.277V10.2668V10.2567V10.2465V10.2363V10.2261V10.2159V10.2057V10.1955V10.1853V10.1751V10.1649V10.1546V10.1444V10.1342V10.1239V10.1137V10.1035V10.0932V10.083V10.0727V10.0625V10.0522V10.042V10.0317V10.0215V10.0112V10.001V9.99072V9.98047V9.97022V9.95996V9.94971V9.93946V9.92921V9.91896V9.90871V9.89846V9.88822V9.87798V9.86774V9.8575V9.84727V9.83704V9.82681V9.81659V9.80637V9.79615V9.78594V9.77574V9.76553V9.75534V9.74514V9.73496V9.72478V9.7146V9.70443V9.69427V9.68411V9.67396V9.66382V9.65368V9.64355V9.63343V9.62332V9.61321V9.60312V9.59303V9.58295V9.57288V9.56282V9.55277V9.54272V9.53269V9.52267V9.51266V9.50266V9.49266V9.48268V9.47271V9.46276V9.45281V9.44288V9.43296V9.42305V9.41315V9.40326V9.39339V9.38353V9.37369V9.36386V9.35404V9.34424V9.33445V9.32468V9.31492V9.30517V9.29544V9.28573V9.27603V9.26635V9.25668V9.24703V9.2374V9.22778V9.21818V9.2086V9.19903V9.18948V9.17995V9.17044V9.16095V9.15147V9.14202V9.13258V9.12316V9.11377V9.10439V9.09503V9.08569V9.07637V9.06707V9.0578V9.04854V9.03931V9.03009V9.0209V9.01173V9.00258V8.99346V8.98436V8.97528V8.96622V8.95719V8.94818V8.93919V8.93023V8.92129V8.91238V8.90349V8.89462V8.88578V8.87697V8.86818V8.85942V8.85068V8.84197V8.83328V8.82463V8.816V8.80739V8.79881V8.79027V8.78174V8.77325V8.76478V8.75635V8.74794V8.73956V8.73121V8.72289V8.7146V8.70633V8.6981V8.6899V8.68173V8.67359V8.66548V8.6574V8.64935V8.64133V8.63335V8.6254V8.61748V8.60959V8.60173V8.59391V8.58612V8.57837V8.57064V8.56295V8.5553V8.54768V8.54009V8.53254V8.52502V8.51754V8.5101V8.50269V8.49531V8.48797V8.48067V8.4734V8.46617V8.45898V8.45182V8.44471V8.43762V8.43058V8.42358V8.41661V8.40968V8.40279V8.39594V8.38913V8.38236V8.37562V8.36893V8.36228V8.35567V8.34909V8.34256V8.33607V8.32962V8.32321V8.31685V8.31052V8.30424V8.298V8.2918V8.28564V8.27953V8.27346V8.26744V8.26145V8.25552V8.24962V8.24377V8.23796V8.2322V8.22649V8.22082V8.21519V8.20961V8.20408V8.19859V8.19315V8.18775V8.1824V8.1771V8.17184V8.16664V8.16148V8.15637V8.1513V8.14629V8.14132V8.1364V8.13153V8.12671V8.12194V8.11722V8.11255V8.10793V8.10336V8.09884V8.09437V8.08995V8.08558V8.08126V8.077V8.07279V8.06863V8.06452V8.06046V8.05646V8.05251V8.04861V8.04477V8.04098V8.03724V8.03356V8.02993V8.02636V8.02284V8.01938V8.01597V8.01262V8.00932V8.00608V8.0029V7.99977V7.9967V7.99368V7.99072C2.99879 7.439 3.44657 6.99122 3.99829 6.99122H4.99829V6.99072H4.99879C4.99879 4.782 6.78957 2.99122 8.99829 2.99122C10.2091 2.99122 11.264 3.54715 11.9979 4.39706L11.9983 4.39673ZM10.9983 6.99072H10.9988C10.9988 5.88545 10.1036 4.99022 8.99829 4.99022C7.89301 4.99022 6.99779 5.88545 6.99779 6.99072H6.99829V6.99122H10.9983V6.99072ZM16.9983 6.99072H16.9988C16.9988 5.88545 16.1036 4.99022 14.9983 4.99022C13.893 4.99022 12.9978 5.88545 12.9978 6.99072H12.9983V6.99122H16.9983V6.99072ZM18.9983 8.99072V8.99022H4.99829V8.99072H4.99779V8.99493V8.99914V9.00335V9.00755V9.01174V9.01594V9.02013V9.02431V9.02849V9.03267V9.03685V9.04102V9.04519V9.04936V9.05352V9.05768V9.06183V9.06599V9.07014V9.07428V9.07842V9.08256V9.0867V9.09083V9.09496V9.09908V9.10321V9.10733V9.11144V9.11556V9.11967V9.12377V9.12788V9.13198V9.13607V9.14017V9.14426V9.14835V9.15243V9.15651V9.16059V9.16467V9.16874V9.17281V9.17688V9.18094V9.185V9.18906V9.19312V9.19717V9.20122V9.20526V9.20931V9.21335V9.21739V9.22142V9.22545V9.22948V9.23351V9.23753V9.24155V9.24557V9.24959V9.2536V9.25761V9.26162V9.26562V9.26963V9.27363V9.27762V9.28162V9.28561V9.2896V9.29359V9.29757V9.30155V9.30553V9.30951V9.31348V9.31745V9.32142V9.32539V9.32935V9.33331V9.33727V9.34123V9.34519V9.34914V9.35309V9.35703V9.36098V9.36492V9.36886V9.3728V9.37674V9.38067V9.3846V9.38853V9.39246V9.39638V9.40031V9.40423V9.40815V9.41206V9.41598V9.41989V9.4238V9.4277V9.43161V9.43551V9.43942V9.44332V9.44721V9.45111V9.455V9.45889V9.46278V9.46667V9.47056V9.47444V9.47832V9.4822V9.48608V9.48995V9.49383V9.4977V9.50157V9.50544V9.50931V9.51317V9.51704V9.5209V9.52476V9.52862V9.53247V9.53633V9.54018V9.54403V9.54788V9.55173V9.55558V9.55942V9.56327V9.56711V9.57095V9.57479V9.57862V9.58246V9.58629V9.59013V9.59396V9.59779V9.60161V9.60544V9.60927V9.61309V9.61691V9.62073V9.62455V9.62837V9.63219V9.636V9.63982V9.64363V9.64744V9.65125V9.65506V9.65887V9.66268V9.66648V9.67029V9.67409V9.67789V9.68169V9.68549V9.68929V9.69309V9.69688V9.70068V9.70447V9.70827V9.71206V9.71585V9.71964V9.72343V9.72722V9.731V9.73479V9.73857V9.74236V9.74614V9.74992V9.7537V9.75748V9.76126V9.76504V9.76882V9.7726V9.77637V9.78015V9.78392V9.7877V9.79147V9.79524V9.79901V9.80278V9.80655V9.81032V9.81409V9.81786V9.82163V9.82539V9.82916V9.83293V9.83669V9.84046V9.84422V9.84798V9.85175V9.85551V9.85927V9.86303V9.86679V9.87055V9.87431V9.87807V9.88183V9.88559V9.88935V9.89311V9.89686V9.90062V9.90438V9.90813V9.91189V9.91565V9.9194V9.92316V9.92691V9.93067V9.93442V9.93818V9.94193V9.94568V9.94944V9.95319V9.95694V9.9607V9.96445V9.9682V9.97196V9.97571V9.97946V9.98322V9.98697V9.99072V9.99448V9.99823V10.002V10.0057V10.0095V10.0132V10.017V10.0207V10.0245V10.0283V10.032V10.0358V10.0395V10.0433V10.047V10.0508V10.0545V10.0583V10.062V10.0658V10.0696V10.0733V10.0771V10.0808V10.0846V10.0883V10.0921V10.0959V10.0996V10.1034V10.1071V10.1109V10.1147V10.1184V10.1222V10.1259V10.1297V10.1335V10.1372V10.141V10.1448V10.1485V10.1523V10.1561V10.1598V10.1636V10.1674V10.1711V10.1749V10.1787V10.1824V10.1862V10.19V10.1937V10.1975V10.2013V10.2051V10.2088V10.2126V10.2164V10.2202V10.224V10.2277V10.2315V10.2353V10.2391V10.2429V10.2467V10.2504V10.2542V10.258V10.2618V10.2656V10.2694V10.2732V10.277V10.2808V10.2846V10.2884V10.2922V10.296V10.2998V10.3036V10.3074V10.3112V10.315V10.3188V10.3226V10.3264V10.3302V10.334V10.3378V10.3416V10.3454V10.3493V10.3531V10.3569V10.3607V10.3645V10.3684V10.3722V10.376V10.3798V10.3837V10.3875V10.3913V10.3952V10.399V10.4028V10.4067V10.4105V10.4143V10.4182V10.422V10.4259V10.4297V10.4336V10.4374V10.4413V10.4451V10.449V10.4528V10.4567V10.4605V10.4644V10.4683V10.4721V10.476V10.4799V10.4837V10.4876V10.4915V10.4954V10.4992V10.5031V10.507V10.5109V10.5148V10.5187V10.5226V10.5264V10.5303V10.5342V10.5381V10.542V10.5459V10.5498V10.5537V10.5576V10.5616V10.5655V10.5694V10.5733V10.5772V10.5811V10.5851V10.589V10.5929V10.5968V10.6008V10.6047V10.6086V10.6126V10.6165V10.6205V10.6244V10.6284V10.6323V10.6363V10.6402V10.6442V10.6481V10.6521V10.6561V10.66V10.664V10.668V10.6719V10.6759V10.6799V10.6839V10.6879V10.6918V10.6958V10.6998V10.7038V10.7078V10.7118V10.7158V10.7198V10.7238V10.7278V10.7319V10.7359V10.7399V10.7439V10.7479V10.752V10.756V10.76V10.7641V10.7681V10.7721V10.7762V10.7802V10.7843V10.7883V10.7924V10.7964V10.8005V10.8046V10.8086V10.8127V10.8168V10.8209V10.8249V10.829V10.8331V10.8372V10.8413V10.8454V10.8495V10.8536V10.8577V10.8618V10.8659V10.87V10.8741V10.8782V10.8824V10.8865V10.8906V10.8947V10.8989V10.903V10.9072V10.9113V10.9155V10.9196V10.9238V10.9279V10.9321V10.9363V10.9404V10.9446V10.9488V10.953V10.9571V10.9613V10.9655V10.9697V10.9739V10.9781V10.9823V10.9865V10.9907H4.99829V10.9912H18.9983V10.9907H18.9988V8.99072H18.9983ZM10.9983 12.9907V12.9902H5.99829V12.9907H5.99779V16.9907C5.99779 18.096 6.89301 18.9912 7.99829 18.9912H10.9983V18.9907H10.9988V12.9907H10.9983ZM17.9983 12.9907V12.9902H12.9983V12.9907H12.9978V18.9907H12.9983V18.9912H15.9983C17.1036 18.9912 17.9988 18.096 17.9988 16.9907V12.9907H17.9983Z" fill="#9EA3AE" stroke="#9EA3AE" stroke-width="0.001"/>
</g>
</svg>
