<svg width="24" height="24" viewBox="0 0 24 24" fill="none" xmlns="http://www.w3.org/2000/svg">
<g id="headset">
<path id="Vector" d="M0 0H24V24H0V0Z" stroke="#111827" stroke-width="0.002" stroke-linecap="round" stroke-linejoin="round"/>
<path id="Vector_2" d="M4.56399 7.04965L4.56406 7.0502L4.5644 7.04934C5.69333 4.19253 8.63415 2.01466 11.9989 2.01466C15.3447 2.01466 18.2485 4.09653 19.4285 7.04135L19.428 7.04153L19.4288 7.04165C20.8666 7.26362 21.9984 8.51441 21.9984 10.0141V14.0141C21.9984 15.6709 20.6557 17.0136 18.9989 17.0136C18.742 17.0136 18.547 16.9856 18.308 16.9256L18.3082 16.9249L18.3075 16.9258C17.4096 18.1287 16.1307 19.0017 14.9598 19.4417L14.9596 19.4412L14.9594 19.4421C14.7495 20.8938 13.5087 22.0136 11.9989 22.0136C10.3422 22.0136 8.99943 20.6709 8.99943 19.0141C8.99943 17.3574 10.3422 16.0146 11.9989 16.0146C13.0448 16.0146 13.9956 16.5566 14.5575 17.4554L14.5541 17.4575L14.5581 17.4556C15.3302 17.0856 15.9903 16.5825 16.6173 15.8455L16.6187 15.8466L16.6173 15.8448C16.2464 15.3549 15.9994 14.65 15.9994 14.0141V10.0141C15.9994 8.96833 16.5703 7.99149 17.4182 7.45058L17.4199 7.45329L17.4184 7.44995C16.4813 5.42178 14.4291 4.01366 11.9989 4.01366C9.57473 4.01366 7.46757 5.48276 6.56449 7.44293L6.56167 7.44163L6.56467 7.44356C7.39454 7.97647 7.99843 8.95334 7.99843 10.0141V14.0141C7.99843 15.6709 6.65566 17.0136 4.99893 17.0136C3.34221 17.0136 1.99943 15.6709 1.99943 14.0141V10.0141C1.99943 8.52939 3.12826 7.22262 4.56399 7.04965ZM5.99943 10.0141C5.99943 9.46187 5.55121 9.01365 4.99893 9.01365C4.44666 9.01365 3.99843 9.46187 3.99843 10.0141V14.0141C3.99843 14.5664 4.44666 15.0146 4.99893 15.0146C5.55121 15.0146 5.99943 14.5664 5.99943 14.0141V10.0141ZM19.9994 10.0141C19.9994 9.46187 19.5512 9.01365 18.9989 9.01365C18.4467 9.01365 17.9984 9.46187 17.9984 10.0141V14.0141C17.9984 14.5664 18.4467 15.0146 18.9989 15.0146C19.5512 15.0146 19.9994 14.5664 19.9994 14.0141V10.0141ZM12.9994 19.0141C12.9994 18.4619 12.5512 18.0136 11.9989 18.0136C11.4467 18.0136 10.9984 18.4619 10.9984 19.0141C10.9984 19.5664 11.4467 20.0146 11.9989 20.0146C12.5512 20.0146 12.9994 19.5664 12.9994 19.0141Z" fill="#111827" stroke="#111827" stroke-width="0.001"/>
</g>
</svg>
