<svg width="14" height="15" viewBox="0 0 14 15" fill="none" xmlns="http://www.w3.org/2000/svg">
<g id="hourglass-bottom3-fill">
<path id="Vector" d="M4.68356 1.67505C3.33565 1.67505 2.33197 2.58155 2.33203 4.00838C2.33203 4.59171 3.0497 5.65862 3.3164 6.01386C3.45576 6.19878 3.60539 6.37087 3.7539 6.54237C3.82151 6.62053 3.88679 6.70454 3.95439 6.7792C4.01197 6.84279 4.03635 6.87662 4.08203 6.92504V8.0917C4.03647 8.14012 4.01197 8.17395 3.95439 8.23753C3.73839 8.47728 3.51911 8.73337 3.3164 9.00287C3.0497 9.35812 2.33203 10.425 2.33203 11.0084C2.33197 12.4352 3.33571 13.3417 4.68356 13.3417H9.35021C10.6963 13.3417 11.6653 12.4381 11.6653 11.0084C11.6653 10.425 10.9453 9.35637 10.681 9.00287C10.4783 8.7322 10.2589 8.47787 10.043 8.23753C9.98546 8.17337 9.9609 8.1407 9.91534 8.0917V6.92504C9.96096 6.87604 9.98535 6.84337 10.043 6.7792C10.2589 6.53887 10.4783 6.28453 10.681 6.01386C10.9453 5.66037 11.6654 4.59171 11.6653 4.00838C11.6653 2.57863 10.6964 1.67505 9.35021 1.67505H4.68356ZM6.99869 9.25836C7.58202 9.25836 8.74868 10.425 9.33201 11.5917H4.66536C5.24869 10.425 6.41535 9.25836 6.99869 9.25836Z" fill="white"/>
</g>
</svg>
