<svg xmlns="http://www.w3.org/2000/svg" width="27" height="26" viewBox="0 0 27 26" fill="none">
    <path d="M1.65784 1H25.342V25H1.65784V1Z" fill="white" stroke="white" stroke-width="1.5" stroke-linecap="round" stroke-linejoin="round"/>
    <path d="M13.4394 3.19751C12.4358 3.18551 11.4529 3.52152 10.7562 4.22852L3.90952 11.3215C3.61544 11.6265 3.53648 12.0655 3.72497 12.4475L4.61905 14.2595L4.58846 19.9785C4.58846 21.1095 5.48254 22.0095 6.59274 22.0095H9.73879C10.7227 22.0095 11.5269 21.1945 11.5269 20.1975V16.8905C11.5269 15.8515 12.3579 15.0095 13.3832 15.0095H13.6181C14.6434 15.0095 15.4743 15.8515 15.4743 16.8905V20.1975C15.4743 21.1945 16.2786 22.0095 17.2625 22.0095H20.4085C21.5187 22.0095 22.4128 21.1035 22.4128 19.9785L22.3822 14.2595L23.2763 12.4475C23.4667 12.0625 23.3917 11.5955 23.0917 11.2905C22.8352 11.0305 16.8006 4.91553 16.1838 4.29053C15.4684 3.56553 14.4421 3.20851 13.4394 3.19751Z" fill="red"/>
</svg>
