<svg width="27" height="26" viewBox="0 0 27 26" fill="none" xmlns="http://www.w3.org/2000/svg">
<g id="house-door">
<rect width="23.6842" height="24" transform="translate(1.6579 1)" fill="#9EA3AE"/>
<path id="Vector" d="M1.6579 1H25.3421V25H1.6579V1Z" fill="white" stroke="white" stroke-width="1.5" stroke-linecap="round" stroke-linejoin="round"/>
<path id="Vector_2" d="M13.4243 3.19758C12.4207 3.18558 11.4384 3.52158 10.7411 4.22858L3.89486 11.3216C3.60039 11.6266 3.52154 12.0656 3.70983 12.4476L4.6041 14.2596L4.57332 19.9786C4.57322 21.1096 5.46759 22.0096 6.57779 22.0096H10.7102C11.6944 22.0096 12.4986 21.1946 12.4986 20.1976V15.8846C12.4986 15.4006 12.8845 15.0096 13.3621 15.0096H13.6088C14.0865 15.0096 14.4723 15.4006 14.4723 15.8846V20.1976C14.4723 21.1946 15.2766 22.0096 16.2615 22.0096H20.3934C21.5036 22.0096 22.3976 21.1036 22.3976 19.9786L22.3671 14.2596L23.2611 12.4476C23.4516 12.0626 23.3766 11.5956 23.0766 11.2906C22.82 11.0306 16.7855 4.91559 16.1687 4.29059C15.4532 3.56559 14.4269 3.20858 13.4243 3.19758ZM13.4243 5.19758C13.9207 5.20758 14.4161 5.39058 14.7496 5.72858C15.323 6.30858 20.2128 11.2636 21.1641 12.2286L20.4861 13.5716C20.4171 13.7126 20.3924 13.8526 20.3934 14.0096L20.424 19.9786C20.424 19.9926 20.4141 20.0096 20.3934 20.0096H16.446V15.8846C16.446 14.2956 15.1769 13.0096 13.6088 13.0096H13.3621C11.794 13.0096 10.5252 14.2956 10.5252 15.8846V20.0096H6.57779C6.55766 20.0096 6.547 19.9986 6.547 19.9786L6.57779 14.0096C6.57877 13.8526 6.5547 13.7126 6.48532 13.5716L5.80687 12.1976L12.1286 5.63459C12.4335 5.32559 12.9269 5.18658 13.4243 5.19758Z" fill="#9EA3AE"/>
</g>
</svg>
