<svg width="16" height="16" viewBox="0 0 16 16" fill="none" xmlns="http://www.w3.org/2000/svg">
<g id="info2-circle-fill">
<path id="Vector" d="M7.99927 1.34277C4.31726 1.34277 1.33258 4.32745 1.33258 8.00946C1.33258 11.6915 4.31726 14.6761 7.99927 14.6761C11.6813 14.6761 14.666 11.6915 14.666 8.00946C14.666 4.32745 11.6813 1.34277 7.99927 1.34277ZM7.99927 4.67612C8.36727 4.67612 8.66594 4.97478 8.66594 5.34278C8.66594 5.71078 8.36727 6.00945 7.99927 6.00945C7.63127 6.00945 7.3326 5.71078 7.3326 5.34278C7.3326 4.97478 7.63127 4.67612 7.99927 4.67612ZM7.3326 6.67612C7.4406 6.67612 7.91527 6.67612 7.99927 6.67612C8.41994 6.67612 8.72793 7.05545 8.64527 7.46811L8.14526 10.0095H8.66594C9.03394 10.0095 9.3326 10.3081 9.3326 10.6761C9.3326 11.0441 9.03394 11.3428 8.66594 11.3428H7.99927C7.2106 11.3428 6.65726 10.6581 6.81193 9.88414L7.20727 7.96812C6.90527 7.90412 6.66593 7.66412 6.66593 7.34279C6.66593 6.97479 6.9646 6.67612 7.3326 6.67612Z" fill="#9EA3AE"/>
</g>
</svg>
