<svg width="24" height="24" viewBox="0 0 24 24" fill="none" xmlns="http://www.w3.org/2000/svg">
<g id="info2-circle-fill">
<path id="Vector" d="M11.9989 2.01416C6.4759 2.01416 1.9989 6.49116 1.9989 12.0142C1.9989 17.5372 6.4759 22.0142 11.9989 22.0142C17.5219 22.0142 21.9989 17.5372 21.9989 12.0142C21.9989 6.49116 17.5219 2.01416 11.9989 2.01416ZM11.9989 7.01416C12.5509 7.01416 12.9989 7.46216 12.9989 8.01416C12.9989 8.56616 12.5509 9.01416 11.9989 9.01416C11.4469 9.01416 10.9989 8.56616 10.9989 8.01416C10.9989 7.46216 11.4469 7.01416 11.9989 7.01416ZM10.9989 10.0142C11.1609 10.0142 11.8729 10.0142 11.9989 10.0142C12.6299 10.0142 13.0919 10.5831 12.9679 11.2021L12.2179 15.0142H12.9989C13.5509 15.0142 13.9989 15.4622 13.9989 16.0142C13.9989 16.5662 13.5509 17.0142 12.9989 17.0142H11.9989C10.8159 17.0142 9.9859 15.9872 10.2179 14.8262L10.8109 11.9521C10.3579 11.8561 9.9989 11.4962 9.9989 11.0142C9.9989 10.4622 10.4469 10.0142 10.9989 10.0142Z" fill="#E21414"/>
</g>
</svg>
