<svg width="14" height="15" viewBox="0 0 14 15" fill="none" xmlns="http://www.w3.org/2000/svg">
<g id="info-circle-fill">
<path id="Vector" d="M6.99936 1.6748C3.77772 1.6748 1.16602 4.28639 1.16602 7.50815C1.16602 10.7299 3.77772 13.3415 6.99936 13.3415C10.221 13.3415 12.8327 10.7299 12.8327 7.50815C12.8327 4.28639 10.221 1.6748 6.99936 1.6748ZM6.99936 4.59148C7.32153 4.59148 7.58269 4.85281 7.58269 5.17481C7.58269 5.49681 7.32153 5.75815 6.99936 5.75815C6.67718 5.75815 6.41602 5.49681 6.41602 5.17481C6.41602 4.85281 6.67718 4.59148 6.99936 4.59148ZM6.99936 6.34148C7.32153 6.34148 7.58269 6.60282 7.58269 6.92482V9.84149C7.58269 10.1635 7.32153 10.4248 6.99936 10.4248C6.67718 10.4248 6.41602 10.1635 6.41602 9.84149V6.92482C6.41602 6.60282 6.67718 6.34148 6.99936 6.34148Z" fill="#E21414"/>
</g>
</svg>
