<svg width="120" height="80" viewBox="0 0 120 80" fill="none" xmlns="http://www.w3.org/2000/svg">
<g id="logo 1" clip-path="url(#clip0_182_3499)">
<path id="Vector" d="M94.4769 0C94.7714 -1.29339e-08 95.0103 0.238781 95.0103 0.533333V8.00008C95.0103 8.26197 95.2003 8.48514 95.4589 8.52667L119.474 12.3832C119.765 12.4298 119.962 12.703 119.916 12.9936L119.177 17.6354C119.133 17.9148 118.878 18.1109 118.597 18.0822L60.0539 12.1151C60.0181 12.1114 59.9817 12.1114 59.9458 12.1151L1.40307 18.0822C1.12162 18.1109 0.866747 17.9148 0.822286 17.6354L0.0836097 12.9936C0.0373659 12.703 0.235216 12.4298 0.52575 12.3832L59.9153 2.846C59.9714 2.837 60.0283 2.837 60.0844 2.846L76.1997 5.43386C76.5239 5.48592 76.8175 5.23558 76.8175 4.90728V0.533333C76.8175 0.238782 77.0564 7.64944e-07 77.3508 7.52011e-07L94.4769 0Z" fill="#E21414"/>
<path id="Vector_2" d="M7.80147 47.8236C2.88944 47.8236 0 45.1153 0 40.0753V30.75C0 25.6759 2.88944 22.9331 7.83761 22.9331C12.7073 22.9331 15.5001 25.477 15.8611 30.1972C15.8842 30.4984 15.6412 30.75 15.3392 30.75H11.2625C10.9816 30.75 10.7515 30.5306 10.7149 30.2522C10.4743 28.42 9.59714 27.6644 7.80147 27.6644C6.24842 27.6644 5.34547 28.6242 5.34547 30.75V40.0753C5.34547 42.1325 6.21231 43.0925 7.80147 43.0925C9.62569 43.0925 10.5362 42.3406 10.7846 40.5717C10.8236 40.2939 11.0532 40.0753 11.3337 40.0753H15.4192C15.7182 40.0753 15.9601 40.3222 15.9409 40.6206C15.6381 45.3103 12.7421 47.8236 7.80147 47.8236Z" fill="#E21414"/>
<path id="Vector_3" fill-rule="evenodd" clip-rule="evenodd" d="M31.885 34.5961C31.6425 34.877 31.6925 35.3289 31.9922 35.5478C33.4786 36.6331 34.3447 38.347 34.3447 40.2467C34.3447 44.5323 31.2386 47.4123 26.9045 47.4123H19.4558C19.1612 47.4123 18.9225 47.1734 18.9225 46.8789V23.9464C18.9225 23.6519 19.1612 23.4131 19.4558 23.4131H26.7962C30.697 23.4131 33.4781 26.1558 33.4781 30.2356C33.4781 31.7936 32.8939 33.4273 31.885 34.5961ZM25.8932 28.0073H24.5845C24.29 28.0073 24.0512 28.2459 24.0512 28.5406V32.4795C24.0512 32.7739 24.29 33.0128 24.5845 33.0128H26.0738C27.5185 33.0128 28.277 32.1214 28.277 30.4414C28.277 28.83 27.5547 28.0073 25.8932 28.0073ZM26.0016 42.8181C28.0242 42.8181 29.0717 41.9267 29.0717 40.2125C29.0717 38.4639 28.0242 37.5725 26.1099 37.5725H24.5845C24.29 37.5725 24.0512 37.8114 24.0512 38.1059V42.2848C24.0512 42.5795 24.29 42.8181 24.5845 42.8181H26.0016Z" fill="#E21414"/>
<path id="Vector_4" fill-rule="evenodd" clip-rule="evenodd" d="M45.1281 47.8239C39.9992 47.8239 36.9292 44.7725 36.9292 39.63V31.1959C36.9292 26.0533 39.9992 23.002 45.1281 23.002C50.2567 23.002 53.3267 26.0533 53.3267 31.1959V39.63C53.3267 40.2173 53.2867 40.7773 53.2081 41.3086C53.1897 41.4342 53.1236 41.5467 53.0294 41.6317C52.9533 41.7006 52.8789 41.7717 52.8058 41.8456L49.0928 45.59C49.0906 45.5923 49.0872 45.5936 49.0839 45.5936C49.0806 45.5936 49.0775 45.595 49.0753 45.5973L47.1317 47.5517C47.0531 47.6306 46.9519 47.6836 46.8419 47.7003C46.3 47.7823 45.7281 47.8239 45.1281 47.8239ZM45.1281 43.0928C47.0422 43.0928 48.0175 41.8928 48.0175 39.63V31.1959C48.0175 28.9331 47.0422 27.7332 45.1281 27.7332C43.2136 27.7332 42.2386 28.9331 42.2386 31.1959V39.63C42.2386 41.8928 43.2136 43.0928 45.1281 43.0928Z" fill="#E21414"/>
<path id="Vector_5" d="M51.4203 54.5515C51.3506 54.4079 51.1922 54.3398 51.0325 54.3398H47.5361C47.3406 54.3398 47.1606 54.4468 47.0672 54.6187L43.5039 61.1873L43.1525 61.9115C42.9053 62.4207 42.1394 62.2446 42.1394 61.6785V54.8732C42.1394 54.5785 41.9006 54.3398 41.6061 54.3398H37.3658C37.0714 54.3398 36.8325 54.5785 36.8325 54.8732V79.0343C36.8325 79.329 37.0714 79.5676 37.3658 79.5676H41.6061C41.9006 79.5676 42.1394 79.329 42.1394 79.0343V72.446C42.1394 72.3426 42.1694 72.2415 42.2258 72.1548L43.1117 70.794C43.3361 70.4493 43.8497 70.4776 44.035 70.8451L48.2839 79.2743C48.3745 79.4543 48.5586 79.5676 48.76 79.5676H53.5906C53.9972 79.5676 54.2542 79.131 54.0567 78.7754L46.7633 65.6398C46.67 65.4718 46.6742 65.2665 46.7745 65.1026L50.2042 59.4971C50.3325 59.2873 50.3006 59.0171 50.1272 58.8429L49.8908 58.6051C49.4772 58.189 49.4772 57.5168 49.8908 57.1007L51.2161 55.7682C51.5436 55.4387 51.612 54.9482 51.4203 54.5515Z" fill="#E21414"/>
<path id="Vector_6" d="M60.2847 58.4853C60.0775 58.4559 59.9097 58.622 59.8586 58.8248L54.79 78.9037C54.705 79.2406 54.9597 79.5676 55.3072 79.5676H59.7611C60.0136 79.5676 60.2316 79.3903 60.2833 79.1431L60.978 75.8114C61.0297 75.5642 61.2475 75.387 61.5 75.387H66.243C66.4955 75.387 66.7136 75.5642 66.7652 75.8114L67.46 79.1431C67.5114 79.3903 67.7294 79.5676 67.9819 79.5676H72.4358C72.7833 79.5676 73.038 79.2406 72.953 78.9037L68.5752 61.5614C68.4739 61.1592 67.9725 61.0217 67.68 61.3159L66.2975 62.7062C65.8805 63.1256 65.2019 63.1256 64.7847 62.7062C64.5733 62.4934 64.2136 62.672 64.2566 62.9689C64.4969 64.6348 64.7786 66.4234 65.0089 67.6384L65.48 69.8784C65.5497 70.2101 65.2966 70.5217 64.958 70.5217H62.785C62.4464 70.5217 62.1933 70.2101 62.2633 69.8784L62.7344 67.6384C63.0483 66.1462 63.3883 63.7887 63.6464 61.8559C63.6683 61.692 63.6127 61.5276 63.4961 61.4101L60.8897 58.7892C60.7197 58.6181 60.5064 58.517 60.2847 58.4853Z" fill="#E21414"/>
<path id="Vector_7" d="M72.9556 47.3709C72.9817 47.3975 73.0175 47.4123 73.0547 47.4123C73.1322 47.4123 73.1947 47.3495 73.1947 47.2723V23.9464C73.1947 23.6519 72.9561 23.4131 72.6614 23.4131H68.5158C68.3078 23.4131 68.1186 23.5342 68.0314 23.7232L63.3706 33.8356C62.9325 34.7767 62.5533 35.7736 62.1767 36.7642C61.9767 37.29 61.7772 37.8142 61.5703 38.327C61.5503 38.3764 61.487 38.39 61.4483 38.3534C61.4308 38.3367 61.4222 38.3131 61.4253 38.2889C61.8197 35.2756 62.0706 31.1864 62.0706 28.9673V23.9464C62.0706 23.6519 61.8317 23.4131 61.5372 23.4131H57.6195C57.325 23.4131 57.0861 23.6519 57.0861 23.9464V39.8084C57.0861 40.0828 57.295 40.3095 57.5645 40.3611C58.1931 40.4811 58.8045 40.7161 59.3661 41.0642C59.8303 41.352 60.4364 41.352 60.9006 41.0642C62.0875 40.3284 63.497 40.0992 64.8203 40.3867C65.0825 40.4436 65.3581 40.3239 65.47 40.0798L66.3683 38.1211C66.9822 36.762 67.5053 35.3684 68.0278 33.9767L68.0281 33.9759C68.2303 33.437 68.4325 32.8986 68.6397 32.3628C68.6589 32.3131 68.7225 32.2986 68.7611 32.3353C68.7783 32.3517 68.7867 32.3748 68.7839 32.3984C68.4256 35.415 68.2106 39.8806 68.2106 42.5439C68.2106 42.5809 68.225 42.6161 68.2511 42.6423L71.1739 45.5898C71.1753 45.5911 71.177 45.592 71.1786 45.5928C71.18 45.5931 71.1814 45.5934 71.1828 45.5934C71.1861 45.5934 71.1892 45.5948 71.1917 45.597L72.9556 47.3709Z" fill="#E21414"/>
<path id="Vector_8" d="M94.1231 23.7327C94.2081 23.5386 94.3997 23.4131 94.6117 23.4131H98.8945C99.1889 23.4131 99.4278 23.6519 99.4278 23.9464V46.8789C99.4278 47.1734 99.1889 47.4123 98.8945 47.4123H94.9406C94.6461 47.4123 94.4072 47.1734 94.4072 46.8789V41.5153C94.4795 40.0584 94.5428 38.6011 94.6058 37.1439C94.6681 35.7136 94.73 34.2834 94.8006 32.8531C94.8031 32.8053 94.7742 32.7611 94.7292 32.7442C94.6714 32.7223 94.6067 32.752 94.5858 32.81L92.3486 39.0125L91.2167 41.9292C91.137 42.1345 90.9395 42.2695 90.7195 42.2695H86.3931C86.1731 42.2695 85.9756 42.1345 85.8958 41.9292L84.7639 39.0125L82.5267 32.8106C82.5056 32.7523 82.4406 32.7223 82.3825 32.7445C82.3378 32.7614 82.3089 32.805 82.3108 32.8525C82.3642 34.2831 82.4264 35.7136 82.4883 37.1439C82.5517 38.6011 82.6147 40.0584 82.6689 41.5153V46.8789C82.6689 47.1734 82.4303 47.4123 82.1356 47.4123H78.2181C77.9233 47.4123 77.6847 47.1734 77.6847 46.8789V23.9464C77.6847 23.6519 77.9233 23.4131 78.2181 23.4131H82.5006C82.7125 23.4131 82.9045 23.5386 82.9895 23.7327L86.8225 32.4984C87.3158 33.6689 88.1525 35.6873 88.4617 36.6131C88.4753 36.6539 88.5131 36.6811 88.5561 36.6811C88.5992 36.6811 88.6372 36.6539 88.6508 36.6131C88.9597 35.6873 89.7967 33.6689 90.2897 32.4984L94.1231 23.7327Z" fill="#E21414"/>
<path id="Vector_9" d="M104.425 47.4123C104.13 47.4123 103.891 47.1734 103.891 46.8789V23.9464C103.891 23.6519 104.13 23.4131 104.425 23.4131H108.342C108.637 23.4131 108.876 23.6519 108.876 23.9464V28.9673C108.876 31.1864 108.625 35.2756 108.231 38.2889C108.227 38.3131 108.236 38.3367 108.254 38.3534C108.292 38.39 108.356 38.3764 108.376 38.327C108.583 37.8142 108.782 37.2903 108.982 36.7645V36.7639C109.359 35.7736 109.738 34.7767 110.176 33.8356L114.837 23.7232C114.924 23.5342 115.113 23.4131 115.321 23.4131H119.467C119.761 23.4131 120 23.6519 120 23.9464V46.8789C120 47.1734 119.761 47.4123 119.467 47.4123H115.549C115.254 47.4123 115.016 47.1734 115.016 46.8789V42.5439C115.016 39.8806 115.231 35.415 115.589 32.3984C115.592 32.3748 115.584 32.3517 115.566 32.3353C115.528 32.2986 115.464 32.3131 115.445 32.3628C115.237 32.8989 115.035 33.4378 114.833 33.977C114.311 35.3684 113.787 36.762 113.174 38.1211L109.054 47.1014C108.968 47.2909 108.778 47.4123 108.57 47.4123H104.425Z" fill="#E21414"/>
<path id="Vector_10" fill-rule="evenodd" clip-rule="evenodd" d="M16.4512 62.9173C16.4512 57.5112 13.1913 54.3398 7.69492 54.3398H0.533333C0.238781 54.3398 0 54.5785 0 54.8732V79.0343C0 79.329 0.238781 79.5676 0.533333 79.5676H4.84931C5.14386 79.5676 5.38264 79.329 5.38264 79.0343V71.9921C5.38264 71.6973 5.62144 71.4587 5.91597 71.4587H7.69492C13.1913 71.4587 16.4512 68.2871 16.4512 62.9173ZM10.9169 62.9173C10.9169 65.3318 9.77975 66.5935 7.61911 66.5935H5.91597C5.62144 66.5935 5.38264 66.3546 5.38264 66.0601V59.7385C5.38264 59.444 5.62144 59.2051 5.91597 59.2051H7.61911C9.77975 59.2051 10.9169 60.4665 10.9169 62.9173Z" fill="#E21414"/>
<path id="Vector_11" d="M28.8414 54.719C28.9092 54.494 29.1167 54.3398 29.352 54.3398H33.8703C34.2325 54.3398 34.4892 54.6929 34.3775 55.0376L28.425 73.4048C26.6056 79.0632 24.5207 80.0001 19.7067 80.0001H19.2545C18.9599 80.0001 18.7211 79.7612 18.7211 79.4668V75.9923C18.7211 75.6979 18.9599 75.459 19.2545 75.459H19.8962C21.7063 75.459 22.5084 75.0826 23.3198 72.8621C23.3617 72.7476 23.3613 72.6215 23.3205 72.5065L17.1168 55.0518C16.9934 54.7046 17.2508 54.3398 17.6193 54.3398H22.1238C22.355 54.3398 22.56 54.4887 22.6312 54.709L25.3221 63.0237C25.483 63.521 26.1892 63.514 26.3401 63.0135L28.8414 54.719Z" fill="#E21414"/>
<path id="Vector_12" d="M92.8492 54.6596C92.9339 54.4654 93.1258 54.3398 93.3378 54.3398H97.8758C98.1706 54.3398 98.4092 54.5785 98.4092 54.8732V79.0343C98.4092 79.329 98.1706 79.5676 97.8758 79.5676H93.6736C93.3792 79.5676 93.1403 79.329 93.1403 79.0343V73.3687C93.2161 71.8371 93.2825 70.3054 93.3489 68.7737V68.7735C93.4139 67.2698 93.4792 65.7665 93.5531 64.2629C93.5556 64.2126 93.5256 64.1665 93.4783 64.1487C93.4175 64.1254 93.3497 64.1568 93.3278 64.2179L90.9797 70.7379L89.785 73.821C89.7056 74.0262 89.5078 74.1618 89.2878 74.1618H84.7114C84.4914 74.1618 84.2936 74.0262 84.2142 73.821L83.0195 70.7379L80.6717 64.2185C80.6495 64.1571 80.5814 64.1257 80.5203 64.1487C80.4733 64.1668 80.4431 64.2123 80.445 64.2623C80.5011 65.7648 80.5661 67.2673 80.6311 68.7698L80.6317 68.7776C80.6978 70.3082 80.7642 71.8385 80.8208 73.3687V79.0343C80.8208 79.329 80.5822 79.5676 80.2875 79.5676H76.1231C75.8286 79.5676 75.59 79.329 75.59 79.0343V54.8732C75.59 54.5785 75.8286 54.3398 76.1231 54.3398H80.6614C80.8734 54.3398 81.0653 54.4654 81.15 54.6596L85.18 63.8904C85.6978 65.1207 86.5761 67.2426 86.9003 68.2157C86.9145 68.2587 86.9545 68.2871 86.9995 68.2871C87.0447 68.2871 87.0845 68.2587 87.0989 68.2157C87.4231 67.2426 88.3014 65.1207 88.8192 63.8904L92.8492 54.6596Z" fill="#E21414"/>
<path id="Vector_13" d="M103.627 79.5676C103.333 79.5676 103.094 79.329 103.094 79.0343V54.8732C103.094 54.5785 103.333 54.3398 103.627 54.3398H107.792C108.086 54.3398 108.325 54.5785 108.325 54.8732V60.1782C108.325 62.511 108.062 66.8096 107.648 69.9773C107.644 70.0026 107.654 70.0273 107.672 70.0448C107.712 70.0835 107.779 70.069 107.8 70.0173C108.017 69.4785 108.226 68.9282 108.436 68.3757L108.436 68.3746C108.832 67.3335 109.23 66.2851 109.689 65.296L114.588 54.6501C114.675 54.461 114.864 54.3398 115.073 54.3398H119.467C119.761 54.3398 120 54.5785 120 54.8732V79.0343C120 79.329 119.761 79.5676 119.467 79.5676H115.302C115.008 79.5676 114.769 79.329 114.769 79.0343V74.4501C114.769 71.6504 114.994 66.956 115.371 63.7848C115.374 63.7601 115.365 63.736 115.347 63.719C115.306 63.6804 115.239 63.6954 115.219 63.7476C115.002 64.3096 114.791 64.874 114.579 65.4387L114.578 65.4421L114.578 65.4429L114.577 65.4443L114.577 65.4446C114.029 66.9073 113.48 68.3721 112.836 69.801L108.505 79.2565C108.419 79.446 108.229 79.5676 108.021 79.5676H103.627Z" fill="#E21414"/>
<path id="Vector_14" d="M62.4031 52.3118C62.1961 52.5198 62.1961 52.856 62.4031 53.064L67.0281 57.7165C67.2347 57.9246 67.2347 58.2604 67.0281 58.4685L65.8842 59.6193C65.6756 59.829 65.3361 59.829 65.1275 59.6193L60.5117 54.9757C60.3031 54.766 59.9636 54.766 59.755 54.9757L55.1392 59.6193C54.9306 59.829 54.5911 59.829 54.3825 59.6193L53.2389 58.4685C53.032 58.2604 53.032 57.9246 53.2389 57.7165L57.8636 53.064C58.0706 52.856 58.0706 52.5198 57.8636 52.3118L55.6508 50.086C55.4753 49.909 55.1892 49.909 55.0136 50.086C54.84 50.2604 54.5581 50.2629 54.3817 50.0912L54.2969 50.009C53.9586 49.6804 53.3917 49.9201 53.3917 50.3915V51.4882C53.3917 51.6293 53.3361 51.7643 53.2367 51.8643L53.1403 51.9615C52.9308 52.1721 52.5897 52.171 52.3817 51.9593L49.9697 49.5054C49.7647 49.2971 49.7658 48.9629 49.9717 48.7557L50.0756 48.6512C50.1758 48.5504 50.312 48.4937 50.4539 48.4937H51.495C51.9614 48.4937 52.195 47.9296 51.865 47.5998C51.6608 47.396 51.66 47.0657 51.8631 46.861L54.7003 43.9987C55.6253 43.0604 57.0406 42.9485 58.0947 43.6632C58.3367 43.8273 58.3367 44.1673 58.1325 44.3765L56.9617 45.5762C56.7586 45.7843 56.7597 46.1165 56.9639 46.3235L57.5481 46.9151C57.7206 47.0898 57.7189 47.3712 57.5447 47.544C57.3697 47.7173 57.3689 47.9996 57.5425 48.1743L59.755 50.4001C59.9636 50.6098 60.3031 50.6098 60.5117 50.4001L62.7244 48.1743C62.8978 47.9996 62.8969 47.7173 62.7222 47.544C62.5478 47.3712 62.5464 47.0898 62.7189 46.9151L63.3028 46.3235C63.5072 46.1165 63.5081 45.7843 63.305 45.5762L62.1342 44.3765C61.93 44.1673 61.93 43.8273 62.1719 43.6632C63.2261 42.9485 64.6414 43.0604 65.5664 43.9987L68.4036 46.861C68.6067 47.0657 68.6058 47.396 68.4019 47.5998C68.0717 47.9296 68.3053 48.4937 68.7719 48.4937H69.8128C69.955 48.4937 70.0911 48.5504 70.1911 48.6512L70.295 48.7557C70.5011 48.9629 70.502 49.2971 70.2972 49.5054L67.885 51.9593C67.6769 52.171 67.3358 52.1721 67.1264 51.9615L67.03 51.8643C66.9306 51.7643 66.875 51.6293 66.875 51.4882V50.3915C66.875 49.9201 66.3081 49.6804 65.97 50.009L65.8853 50.0912C65.7086 50.2629 65.4269 50.2604 65.2533 50.086C65.0775 49.909 64.7917 49.909 64.6158 50.086L62.4031 52.3118Z" fill="#E21414"/>
</g>
<defs>
<clipPath id="clip0_182_3499">
<rect width="120" height="80" fill="white"/>
</clipPath>
</defs>
</svg>
