<svg width="56" height="56" viewBox="0 0 56 56" fill="none" xmlns="http://www.w3.org/2000/svg">
<g id="pin">
<g id="pin_2" filter="url(#filter0_d_117_2131)">
<circle cx="26" cy="24" r="16" fill="#E21414"/>
</g>
<path id="Vector" d="M27.98 25.2453C27.7994 25.4336 27.7994 25.7377 27.98 25.926L32.0147 30.1359C32.1949 30.3242 32.1949 30.628 32.0147 30.8163L31.0168 31.8577C30.8348 32.0474 30.5387 32.0474 30.3567 31.8577L26.33 27.6558C26.148 27.466 25.8519 27.466 25.6699 27.6558L21.6432 31.8577C21.4612 32.0474 21.1651 32.0474 20.9831 31.8577L19.9855 30.8163C19.8049 30.628 19.8049 30.3242 19.9855 30.1359L24.0199 25.926C24.2004 25.7377 24.2004 25.4336 24.0199 25.2453L22.0896 23.2312C21.9364 23.0711 21.6868 23.0711 21.5337 23.2312C21.3822 23.389 21.1363 23.3913 20.9824 23.236L20.9085 23.1616C20.6133 22.8642 20.1187 23.0811 20.1187 23.5077V24.5C20.1187 24.6277 20.0703 24.7499 19.9835 24.8404L19.8994 24.9283C19.7167 25.1189 19.4192 25.1179 19.2377 24.9263L17.1336 22.7059C16.9547 22.5174 16.9557 22.215 17.1352 22.0275L17.2259 21.933C17.3134 21.8417 17.4321 21.7904 17.5559 21.7904H18.4642C18.871 21.7904 19.0748 21.2799 18.7869 20.9816C18.6088 20.7971 18.6081 20.4982 18.7852 20.313L21.2603 17.723C22.0673 16.8739 23.3019 16.7727 24.2215 17.4194C24.4326 17.5679 24.4326 17.8756 24.2545 18.0649L23.2331 19.1505C23.0559 19.3387 23.0569 19.6393 23.235 19.8266L23.7446 20.362C23.8951 20.5201 23.8937 20.7747 23.7417 20.9311C23.5891 21.0879 23.5883 21.3433 23.7398 21.5014L25.6699 23.5155C25.8519 23.7052 26.148 23.7052 26.33 23.5155L28.2603 21.5014C28.4115 21.3433 28.4108 21.0879 28.2584 20.9311C28.1062 20.7747 28.105 20.5201 28.2555 20.362L28.7649 19.8266C28.9432 19.6393 28.9439 19.3387 28.7668 19.1505L27.7454 18.0649C27.5673 17.8756 27.5673 17.5679 27.7784 17.4194C28.698 16.7727 29.9326 16.8739 30.7396 17.723L33.2146 20.313C33.3918 20.4982 33.3911 20.7971 33.2132 20.9816C32.9251 21.2799 33.1289 21.7904 33.536 21.7904H34.444C34.568 21.7904 34.6868 21.8417 34.774 21.933L34.8646 22.0275C35.0444 22.215 35.0452 22.5174 34.8666 22.7059L32.7622 24.9263C32.5807 25.1179 32.2832 25.1189 32.1004 24.9283L32.0164 24.8404C31.9296 24.7499 31.8811 24.6277 31.8811 24.5V23.5077C31.8811 23.0811 31.3866 22.8642 31.0916 23.1616L31.0177 23.236C30.8636 23.3913 30.6179 23.389 30.4665 23.2312C30.3131 23.0711 30.0637 23.0711 29.9103 23.2312L27.98 25.2453Z" fill="white"/>
</g>
<defs>
<filter id="filter0_d_117_2131" x="0" y="0" width="56" height="56" filterUnits="userSpaceOnUse" color-interpolation-filters="sRGB">
<feFlood flood-opacity="0" result="BackgroundImageFix"/>
<feColorMatrix in="SourceAlpha" type="matrix" values="0 0 0 0 0 0 0 0 0 0 0 0 0 0 0 0 0 0 127 0" result="hardAlpha"/>
<feOffset dx="2" dy="4"/>
<feGaussianBlur stdDeviation="6"/>
<feComposite in2="hardAlpha" operator="out"/>
<feColorMatrix type="matrix" values="0 0 0 0 0.0666667 0 0 0 0 0.0941177 0 0 0 0 0.152941 0 0 0 0.25 0"/>
<feBlend mode="normal" in2="BackgroundImageFix" result="effect1_dropShadow_117_2131"/>
<feBlend mode="normal" in="SourceGraphic" in2="effect1_dropShadow_117_2131" result="shape"/>
</filter>
</defs>
</svg>
