<svg width="16" height="16" viewBox="0 0 16 16" fill="none" xmlns="http://www.w3.org/2000/svg">
<g id="map-pin">
<g id="Group">
<path id="Vector" d="M11.7713 11.1045L8.94263 13.9331C8.69262 14.1829 8.35368 14.3232 8.0003 14.3232C7.64691 14.3232 7.30797 14.1829 7.05796 13.9331L4.22863 11.1045C3.48278 10.3586 2.97485 9.40827 2.76909 8.37371C2.56332 7.33916 2.66896 6.26681 3.07263 5.29229C3.47631 4.31777 4.15989 3.48483 5.03695 2.89881C5.91401 2.31279 6.94514 2 7.99996 2C9.05478 2 10.0859 2.31279 10.963 2.89881C11.84 3.48483 12.5236 4.31777 12.9273 5.29229C13.331 6.26681 13.4366 7.33916 13.2308 8.37371C13.0251 9.40827 12.5171 10.3586 11.7713 11.1045Z" fill="#9EA3AE" stroke="#9EA3AE" stroke-width="1.5" stroke-linecap="round" stroke-linejoin="round"/>
<path id="Vector_2" d="M8 9.33301C9.10457 9.33301 10 8.43758 10 7.33301C10 6.22844 9.10457 5.33301 8 5.33301C6.89543 5.33301 6 6.22844 6 7.33301C6 8.43758 6.89543 9.33301 8 9.33301Z" fill="white"/>
</g>
</g>
</svg>
