<svg width="16" height="16" viewBox="0 0 16 16" fill="none" xmlns="http://www.w3.org/2000/svg">
<g id="pencil-square">
<path id="Vector" opacity="0.986784" d="M11.3322 1.30225C11.1556 1.30225 10.9782 1.36492 10.8529 1.48958C9.85291 2.48958 9.85291 2.48958 9.51957 2.82292L4.85291 7.48958C4.72824 7.61492 4.66557 7.79225 4.66557 7.96891V10.6356C4.66557 11.0036 4.96423 11.3022 5.33223 11.3022C5.66557 11.3022 7.66557 11.3022 7.9989 11.3022C8.17557 11.3022 8.3529 11.2396 8.47823 11.1149L13.1449 6.44824C13.4782 6.11491 13.4782 6.11491 14.4782 5.11491C14.6029 4.98958 14.6656 4.81225 14.6656 4.63558C14.6656 3.54491 14.3876 2.76559 13.8116 2.17692C13.2296 1.58359 12.4529 1.30225 11.3322 1.30225ZM4.66557 1.96891C3.1929 1.96891 1.9989 3.16291 1.9989 4.63558V11.3022C1.9989 12.7749 3.1929 13.9689 4.66557 13.9689H11.3322C12.8049 13.9689 13.9989 12.7749 13.9989 11.3022V8.63558C13.9989 8.26758 13.7002 7.96891 13.3322 7.96891C12.9642 7.96891 12.6656 8.26758 12.6656 8.63558V11.3022C12.6656 12.0389 12.0689 12.6356 11.3322 12.6356H4.66557C3.9289 12.6356 3.33223 12.0389 3.33223 11.3022V4.63558C3.33223 3.89891 3.9289 3.30225 4.66557 3.30225H7.33223C7.70023 3.30225 7.9989 3.00358 7.9989 2.63558C7.9989 2.26758 7.70023 1.96891 7.33223 1.96891H4.66557ZM11.6036 2.64823C12.2049 2.68357 12.5856 2.8209 12.8529 3.09424C13.1262 3.37291 13.2836 3.79359 13.3202 4.38359C12.9942 4.70959 12.7922 4.90292 12.6682 5.02759C12.1396 4.49959 11.4689 3.8349 10.9409 3.30623C11.0656 3.18157 11.2776 2.97423 11.6036 2.64823ZM10.0002 4.25293L11.7236 5.9716L7.7069 9.96891C7.28557 9.96891 6.6129 9.96891 5.9989 9.96891V8.26091L10.0002 4.25293Z" fill="white"/>
</g>
</svg>
