<svg width="20" height="20" viewBox="0 0 20 20" fill="none" xmlns="http://www.w3.org/2000/svg">
<g id="phone">
<path id="Vector" d="M6.67073 1.62769C5.28998 1.62769 4.17073 2.74694 4.17073 4.12769V15.7943C4.17073 17.1751 5.28998 18.2943 6.67073 18.2943H13.3374C14.7182 18.2943 15.8374 17.1751 15.8374 15.7943V4.12769C15.8374 2.74694 14.7182 1.62769 13.3374 1.62769H6.67073ZM6.67073 3.29435H13.3374C13.7974 3.29435 14.1707 3.66744 14.1707 4.12769V15.7943C14.1707 16.2546 13.7974 16.6277 13.3374 16.6277H6.67073C6.21048 16.6277 5.8374 16.2546 5.8374 15.7943V4.12769C5.8374 3.66744 6.21048 3.29435 6.67073 3.29435ZM10.0041 13.2944C9.54407 13.2944 9.17073 13.6674 9.17073 14.1277C9.17073 14.5879 9.54407 14.961 10.0041 14.961C10.4641 14.961 10.8374 14.5879 10.8374 14.1277C10.8374 13.6674 10.4641 13.2944 10.0041 13.2944Z" fill="#9EA3AE" stroke="#9EA3AE" stroke-width="0.002" stroke-linecap="round" stroke-linejoin="round"/>
</g>
</svg>
