<svg width="70" height="70" viewBox="0 0 70 70" fill="none" xmlns="http://www.w3.org/2000/svg">
<g id="pin">
<g id="pin_2" filter="url(#filter0_d_151_4064)">
<circle cx="33" cy="31" r="23" fill="#E21414"/>
<circle cx="33" cy="31" r="20" stroke="#111827" stroke-width="6"/>
</g>
<path id="Vector" d="M34.98 32.2453C34.7994 32.4336 34.7994 32.7377 34.98 32.926L39.0147 37.1359C39.1949 37.3242 39.1949 37.628 39.0147 37.8163L38.0168 38.8577C37.8348 39.0474 37.5387 39.0474 37.3567 38.8577L33.33 34.6558C33.148 34.466 32.8519 34.466 32.6699 34.6558L28.6432 38.8577C28.4612 39.0474 28.1651 39.0474 27.9831 38.8577L26.9855 37.8163C26.8049 37.628 26.8049 37.3242 26.9855 37.1359L31.0199 32.926C31.2004 32.7377 31.2004 32.4336 31.0199 32.2453L29.0896 30.2312C28.9364 30.0711 28.6868 30.0711 28.5337 30.2312C28.3822 30.389 28.1363 30.3913 27.9824 30.236L27.9085 30.1616C27.6133 29.8642 27.1187 30.0811 27.1187 30.5077V31.5C27.1187 31.6277 27.0703 31.7499 26.9835 31.8404L26.8994 31.9283C26.7167 32.1189 26.4192 32.1179 26.2377 31.9263L24.1336 29.7059C23.9547 29.5174 23.9557 29.215 24.1352 29.0275L24.2259 28.933C24.3134 28.8417 24.4321 28.7904 24.5559 28.7904H25.4642C25.871 28.7904 26.0748 28.2799 25.7869 27.9816C25.6088 27.7971 25.6081 27.4982 25.7852 27.313L28.2603 24.723C29.0673 23.8739 30.3019 23.7727 31.2215 24.4194C31.4326 24.5679 31.4326 24.8756 31.2545 25.0649L30.2331 26.1505C30.0559 26.3387 30.0569 26.6393 30.235 26.8266L30.7446 27.362C30.8951 27.5201 30.8937 27.7747 30.7417 27.9311C30.5891 28.0879 30.5883 28.3433 30.7398 28.5014L32.6699 30.5155C32.8519 30.7052 33.148 30.7052 33.33 30.5155L35.2603 28.5014C35.4115 28.3433 35.4108 28.0879 35.2584 27.9311C35.1062 27.7747 35.105 27.5201 35.2555 27.362L35.7649 26.8266C35.9432 26.6393 35.9439 26.3387 35.7668 26.1505L34.7454 25.0649C34.5673 24.8756 34.5673 24.5679 34.7784 24.4194C35.698 23.7727 36.9326 23.8739 37.7396 24.723L40.2146 27.313C40.3918 27.4982 40.3911 27.7971 40.2132 27.9816C39.9251 28.2799 40.1289 28.7904 40.536 28.7904H41.444C41.568 28.7904 41.6868 28.8417 41.774 28.933L41.8646 29.0275C42.0444 29.215 42.0452 29.5174 41.8666 29.7059L39.7622 31.9263C39.5807 32.1179 39.2832 32.1189 39.1004 31.9283L39.0164 31.8404C38.9296 31.7499 38.8811 31.6277 38.8811 31.5V30.5077C38.8811 30.0811 38.3866 29.8642 38.0916 30.1616L38.0177 30.236C37.8636 30.3913 37.6179 30.389 37.4665 30.2312C37.3131 30.0711 37.0637 30.0711 36.9103 30.2312L34.98 32.2453Z" fill="white"/>
</g>
<defs>
<filter id="filter0_d_151_4064" x="0" y="0" width="70" height="70" filterUnits="userSpaceOnUse" color-interpolation-filters="sRGB">
<feFlood flood-opacity="0" result="BackgroundImageFix"/>
<feColorMatrix in="SourceAlpha" type="matrix" values="0 0 0 0 0 0 0 0 0 0 0 0 0 0 0 0 0 0 127 0" result="hardAlpha"/>
<feOffset dx="2" dy="4"/>
<feGaussianBlur stdDeviation="6"/>
<feComposite in2="hardAlpha" operator="out"/>
<feColorMatrix type="matrix" values="0 0 0 0 0.0666667 0 0 0 0 0.0941177 0 0 0 0 0.152941 0 0 0 0.25 0"/>
<feBlend mode="normal" in2="BackgroundImageFix" result="effect1_dropShadow_151_4064"/>
<feBlend mode="normal" in="SourceGraphic" in2="effect1_dropShadow_151_4064" result="shape"/>
</filter>
</defs>
</svg>
