<svg width="24" height="24" viewBox="0 0 24 24" fill="none" xmlns="http://www.w3.org/2000/svg">
<g id="plus">
<path id="Vector" d="M11.9907 2.92969C11.4387 2.92969 10.9907 3.37769 10.9907 3.92969V10.9297H3.99072C3.43872 10.9297 2.99072 11.3777 2.99072 11.9297C2.99072 12.4817 3.43872 12.9297 3.99072 12.9297H10.9907V19.9297C10.9907 20.4817 11.4387 20.9297 11.9907 20.9297C12.5427 20.9297 12.9907 20.4817 12.9907 19.9297V12.9297H19.9907C20.5427 12.9297 20.9907 12.4817 20.9907 11.9297C20.9907 11.3777 20.5427 10.9297 19.9907 10.9297H12.9907V3.92969C12.9907 3.37769 12.5427 2.92969 11.9907 2.92969Z" fill="#E21414"/>
</g>
</svg>
