<svg width="20" height="20" viewBox="0 0 20 20" fill="none" xmlns="http://www.w3.org/2000/svg">
<g id="search">
<path id="Vector" d="M8.34513 1.62769C4.66322 1.62769 1.67847 4.61269 1.67847 8.29437C1.67847 11.976 4.66322 14.961 8.34513 14.961C9.87572 14.961 11.3265 14.4352 12.4517 13.5686L16.0795 17.2269C16.405 17.5519 16.952 17.5519 17.2775 17.2269C17.6029 16.901 17.6029 16.3544 17.2775 16.0286L13.6245 12.3952C14.4919 11.2702 15.0118 9.8252 15.0118 8.29437C15.0118 4.61269 12.027 1.62769 8.34513 1.62769ZM8.34513 3.29436C11.1065 3.29436 13.3451 5.53269 13.3451 8.29437C13.3451 11.056 11.1065 13.2944 8.34513 13.2944C5.58372 13.2944 3.34513 11.056 3.34513 8.29437C3.34513 5.53269 5.58372 3.29436 8.34513 3.29436Z" fill="#9EA3AE"/>
</g>
</svg>
