<svg width="32" height="32" viewBox="0 0 32 32" fill="none" xmlns="http://www.w3.org/2000/svg">
<g id="search">
<path id="Vector" d="M0.0005 0.0005H31.9995V23.988V31.9995H0.0005V0.0005Z" stroke="#111827" stroke-width="0.001"/>
<path id="Vector_2" d="M19.9231 21.7093L19.9256 21.7068L19.9224 21.7092C18.1221 23.0958 15.801 23.9371 13.3522 23.9371C7.46139 23.9371 2.68602 19.1613 2.68602 13.2709C2.68602 7.38053 7.46139 2.60475 13.3522 2.60475C19.243 2.60475 24.0183 7.38053 24.0183 13.2709C24.0183 15.7202 23.1865 18.0321 21.7988 19.832L21.7961 19.8298L21.7989 19.8326L27.6436 25.646C28.164 26.1671 28.164 27.0415 27.6436 27.5626C27.123 28.0824 26.2481 28.0824 25.7275 27.5626L19.9231 21.7093ZM21.3527 13.2709C21.3527 8.85199 17.7707 5.27042 13.3522 5.27042C8.93364 5.27042 5.35168 8.85199 5.35168 13.2709C5.35168 17.6899 8.93364 21.2715 13.3522 21.2715C17.7707 21.2715 21.3527 17.6899 21.3527 13.2709Z" fill="black" stroke="#111827" stroke-width="0.001"/>
</g>
</svg>
