<svg width="32" height="32" viewBox="0 0 32 32" fill="none" xmlns="http://www.w3.org/2000/svg">
<g id="share">
<path id="Vector" d="M0.0005 0.0005H31.9995V23.988V31.9995H0.0005V0.0005Z" stroke="#111827" stroke-width="0.001"/>
<path id="Vector_2" d="M18.8 7.69133L18.8005 7.69209L18.8002 7.69079C18.7189 7.3735 18.6642 6.94687 18.6642 6.60425C18.6642 4.39519 20.4547 2.60475 22.6637 2.60475C24.8728 2.60475 26.6632 4.39519 26.6632 6.60425C26.6632 8.81331 24.8728 10.6037 22.6637 10.6037C21.8358 10.6037 20.9839 10.2931 20.3453 9.8625L20.3458 9.86176L20.3447 9.86251L13.1914 14.8652L13.1909 14.8644L13.1912 14.8657C13.2792 15.195 13.3299 15.5803 13.3299 15.9376C13.3299 16.2949 13.2712 16.6735 13.1846 17.0028L13.1836 17.0026L13.1848 17.0033L20.3554 22.0207L20.3549 22.0214L20.356 22.0207C20.9999 21.5754 21.8212 21.2714 22.6637 21.2714C24.8728 21.2714 26.6632 23.0619 26.6632 25.2709C26.6632 27.48 24.8728 29.2704 22.6637 29.2704C20.4547 29.2704 18.6642 27.48 18.6642 25.2709C18.6642 24.9136 18.7149 24.531 18.8029 24.2017L18.8038 24.202L18.8027 24.2012L11.6507 19.1798L11.6512 19.1791L11.6501 19.1798C11.0048 19.6238 10.1729 19.9371 9.33038 19.9371C7.12133 19.9371 5.33088 18.1466 5.33088 15.9376C5.33088 13.7285 7.12133 11.9381 9.33038 11.9381C10.1583 11.9381 11.0235 12.2407 11.6621 12.6727L11.6616 12.6734L11.6627 12.6727L18.8 7.69133ZM23.9976 6.60425C23.9976 5.86797 23.4 5.27041 22.6637 5.27041C21.9274 5.27041 21.3299 5.86797 21.3299 6.60425C21.3299 7.34052 21.9274 7.93808 22.6637 7.93808C23.4 7.93808 23.9976 7.34052 23.9976 6.60425ZM10.6642 15.9376C10.6642 15.2013 10.0667 14.6037 9.33038 14.6037C8.59411 14.6037 7.99655 15.2013 7.99655 15.9376C7.99655 16.6739 8.59411 17.2714 9.33038 17.2714C10.0667 17.2714 10.6642 16.6739 10.6642 15.9376ZM23.9976 25.2709C23.9976 24.5346 23.4 23.9371 22.6637 23.9371C21.9274 23.9371 21.3299 24.5346 21.3299 25.2709C21.3299 26.0072 21.9274 26.6047 22.6637 26.6047C23.4 26.6047 23.9976 26.0072 23.9976 25.2709Z" fill="black" stroke="#111827" stroke-width="0.001"/>
</g>
</svg>
