<svg width="38" height="38" viewBox="0 0 38 38" fill="none" xmlns="http://www.w3.org/2000/svg">
    <path d="M18.8662 3.83984C17.9782 3.83953 17.0714 4.39202 16.5343 5.49168L13.2308 12.2929L5.70084 13.3617C3.27925 13.6986 2.49471 16.0743 4.24344 17.7821L9.68436 23.0782L8.42138 30.5114C8.00547 32.9176 10.0012 34.3719 12.1621 33.2318C12.997 32.7901 17.2901 30.5659 18.8662 29.7337L25.5702 33.2318C27.7336 34.3719 29.7356 32.9192 29.311 30.5114L27.9993 23.0782L33.4404 17.7821C35.1973 16.0805 34.4532 13.7054 32.0315 13.3617L24.453 12.2929L21.198 5.49168C20.6617 4.39155 19.7541 3.84031 18.8662 3.83984Z" fill="#E21414"/>
</svg>
