<svg width="38" height="38" viewBox="0 0 38 38" fill="none" xmlns="http://www.w3.org/2000/svg">
    <path d="M19.1958 3.83984C18.3078 3.83953 17.401 4.39202 16.8639 5.49168L13.5604 12.2929L6.03043 13.3617C3.60884 13.6986 2.8243 16.0743 4.57303 17.7821L10.014 23.0782L8.75097 30.5114C8.33506 32.9176 10.3308 34.3719 12.4917 33.2318C13.3266 32.7901 17.6197 30.5659 19.1958 29.7337L25.8998 33.2318C28.0632 34.3719 30.0652 32.9192 29.6405 30.5114L28.3289 23.0782L33.77 17.7821C35.5269 16.0805 34.7828 13.7054 32.3611 13.3617L24.7826 12.2929L21.5276 5.49168C20.9913 4.39155 20.0837 3.84031 19.1958 3.83984ZM19.1958 7.87205L22.402 14.4305C22.6282 14.8945 23.057 15.184 23.568 15.2564L30.8552 16.3247L25.5598 21.4264C25.1892 21.7857 25.033 22.2787 25.1226 22.7858L26.3857 29.9764L19.9245 26.5763C19.4706 26.3368 18.9208 26.3368 18.4671 26.5763C17.6609 27.0009 13.7208 29.0711 12.0058 29.9764L13.2204 22.8356C13.3073 22.3301 13.1492 21.7841 12.7832 21.4264L7.53637 16.3247L14.7749 15.305C15.2872 15.2337 15.7624 14.8953 15.9895 14.4305L19.1958 7.87205Z" fill="#E21414"/>
</svg>
