<svg width="26" height="21" viewBox="0 0 26 21" fill="none" xmlns="http://www.w3.org/2000/svg">
<path id="Vector" d="M15.64 11.444C15.3992 11.6825 15.3992 12.0678 15.64 12.3062L21.0195 17.6388C21.2599 17.8773 21.2599 18.2622 21.0195 18.5007L19.689 19.8197C19.4464 20.0601 19.0516 20.0601 18.8089 19.8197L13.44 14.4973C13.1973 14.2569 12.8025 14.2569 12.5599 14.4973L7.19093 19.8197C6.94829 20.0601 6.55346 20.0601 6.31081 19.8197L4.98062 18.5007C4.73991 18.2622 4.73991 17.8773 4.98062 17.6388L10.3599 12.3062C10.6006 12.0678 10.6006 11.6825 10.3599 11.444L7.78608 8.89285C7.58188 8.69004 7.24909 8.69004 7.04489 8.89285C6.84295 9.09279 6.51501 9.09566 6.30984 8.8989L6.2113 8.80466C5.81776 8.42801 5.15832 8.70278 5.15832 9.24307V10.5C5.15832 10.6618 5.0937 10.8165 4.97803 10.9311L4.86591 11.0426C4.6223 11.2839 4.22554 11.2826 3.98354 11.04L1.17807 8.22743C0.939625 7.98865 0.940914 7.60563 1.18033 7.36812L1.30117 7.24841C1.41781 7.13284 1.57613 7.06789 1.74123 7.06789H2.9522C3.49469 7.06789 3.76641 6.42125 3.38257 6.04333C3.14509 5.80964 3.14412 5.43108 3.38031 5.19643L6.68044 1.91583C7.75636 0.840333 9.40254 0.712028 10.6287 1.53122C10.9101 1.71939 10.9101 2.10909 10.6726 2.34883L9.31078 3.72392C9.07459 3.96239 9.07589 4.34317 9.31337 4.58037L9.99284 5.25852C10.1935 5.45878 10.1915 5.7813 9.98896 5.97934C9.78541 6.17801 9.78444 6.50148 9.98638 6.70174L12.5599 9.25294C12.8025 9.49332 13.1973 9.49332 13.44 9.25294L16.0138 6.70174C16.2154 6.50148 16.2144 6.17801 16.0112 5.97934C15.8083 5.7813 15.8067 5.45878 16.0073 5.25852L16.6865 4.58037C16.9243 4.34317 16.9252 3.96239 16.6891 3.72392L15.3272 2.34883C15.0897 2.10909 15.0897 1.71939 15.3711 1.53122C16.5973 0.712028 18.2435 0.840333 19.3194 1.91583L22.6195 5.19643C22.8557 5.43108 22.8547 5.80964 22.6176 6.04333C22.2334 6.42125 22.5051 7.06789 23.048 7.06789H24.2586C24.424 7.06789 24.5824 7.13284 24.6987 7.24841L24.8195 7.36812C25.0592 7.60563 25.0602 7.98865 24.8221 8.22743L22.0163 11.04C21.7743 11.2826 21.3775 11.2839 21.1339 11.0426L21.0218 10.9311C20.9061 10.8165 20.8415 10.6618 20.8415 10.5V9.24307C20.8415 8.70278 20.1821 8.42801 19.7889 8.80466L19.6903 8.8989C19.4848 9.09566 19.1572 9.09279 18.9553 8.89285C18.7507 8.69004 18.4183 8.69004 18.2138 8.89285L15.64 11.444Z" fill="#E21414" stroke="#E21414" stroke-width="1.6"/>
</svg>
