<svg width="16" height="16" viewBox="0 0 16 16" fill="none" xmlns="http://www.w3.org/2000/svg">
<g id="trash2">
<path id="Vector" d="M7.99861 1.30225C7.26195 1.30225 6.66528 1.89891 6.66528 2.63558H3.33195C2.96395 2.63558 2.66528 2.93424 2.66528 3.30224C2.66528 3.67024 2.96395 3.9689 3.33195 3.9689V11.9689C3.33195 13.4289 4.53528 14.6355 5.99861 14.6355H9.99861C11.4619 14.6355 12.6653 13.4322 12.6653 11.9689V3.9689C13.0333 3.9689 13.3319 3.67024 13.3319 3.30224C13.3319 2.93424 13.0333 2.63558 12.6653 2.63558H9.33194C9.33194 1.89891 8.73528 1.30225 7.99861 1.30225ZM4.66528 3.9689H11.3319V11.9689C11.3319 12.7002 10.7386 13.3022 10.0193 13.3022L5.99861 13.2815C5.26395 13.2815 4.66528 12.6882 4.66528 11.9689V3.9689ZM6.66528 5.30223C6.29728 5.30223 5.99861 5.6009 5.99861 5.9689V11.3022C5.99861 11.6702 6.29728 11.9689 6.66528 11.9689C7.03328 11.9689 7.33195 11.6702 7.33195 11.3022V5.9689C7.33195 5.6009 7.03328 5.30223 6.66528 5.30223ZM9.33194 5.30223C8.96394 5.30223 8.66528 5.6009 8.66528 5.9689V11.3022C8.66528 11.6702 8.96394 11.9689 9.33194 11.9689C9.69994 11.9689 9.99861 11.6702 9.99861 11.3022V5.9689C9.99861 5.6009 9.69994 5.30223 9.33194 5.30223Z" fill="#E21414"/>
</g>
</svg>
