<svg width="24" height="24" viewBox="0 0 24 24" fill="none" xmlns="http://www.w3.org/2000/svg">
    <path d="M7.59027 1.99902C5.63927 1.99902 4.02826 3.47902 4.02826 5.34302V18.655C4.02826 20.519 5.63927 21.999 7.59027 21.999H16.4662C18.4172 21.999 20.0283 20.519 20.0283 18.655C20.0283 18.004 20.0283 10.857 20.0283 8.99902C20.0283 8.98902 20.0283 8.97802 20.0283 8.96802C20.0283 5.40502 16.5893 1.99902 13.0283 1.99902C8.81426 1.99902 8.80427 1.99902 7.59027 1.99902ZM7.59027 3.99902C8.58127 3.99902 9.70226 3.99902 12.0283 3.99902V6.65503C12.0283 8.51903 13.6393 9.99902 15.5903 9.99902H18.0283C18.0283 12.536 18.0283 18.071 18.0283 18.655C18.0283 19.369 17.3542 19.999 16.4662 19.999H7.59027C6.70227 19.999 6.02826 19.369 6.02826 18.655V5.34302C6.02826 4.62902 6.70227 3.99902 7.59027 3.99902ZM14.0283 4.24902C15.8003 4.71902 17.3503 6.23202 17.8093 7.99902H15.5903C14.7013 7.99902 14.0283 7.36903 14.0283 6.65503V4.24902ZM10.0283 7.99902C9.47626 7.99902 9.02826 8.44702 9.02826 8.99902C8.47626 8.99902 8.02826 9.44702 8.02826 9.99902C8.02826 10.551 8.47626 10.999 9.02826 10.999C9.02826 11.551 9.47626 11.999 10.0283 11.999C10.5803 11.999 11.0283 11.551 11.0283 10.999C11.5803 10.999 12.0283 10.551 12.0283 9.99902C12.0283 9.44702 11.5803 8.99902 11.0283 8.99902C11.0283 8.44702 10.5803 7.99902 10.0283 7.99902ZM9.02826 12.999C8.47626 12.999 8.02826 13.447 8.02826 13.999C8.02826 14.551 8.47626 14.999 9.02826 14.999H15.0283C15.5803 14.999 16.0283 14.551 16.0283 13.999C16.0283 13.447 15.5803 12.999 15.0283 12.999H9.02826ZM9.02826 15.999C8.47626 15.999 8.02826 16.447 8.02826 16.999C8.02826 17.551 8.47626 17.999 9.02826 17.999H15.0283C15.5803 17.999 16.0283 17.551 16.0283 16.999C16.0283 16.447 15.5803 15.999 15.0283 15.999H9.02826Z" fill="#E21414"/>
</svg>
