<svg width="48" height="48" viewBox="0 0 48 48" fill="none" xmlns="http://www.w3.org/2000/svg">
<path d="M18.5781 14.6406H29.3828V34.0548H18.5781V14.6406Z" fill="#FF5F00"/>
<path d="M19.2639 24.3483C19.2639 20.4037 21.1161 16.905 23.963 14.6411C21.8708 12.9947 19.2297 12 16.3484 12C9.52234 12 4 17.5223 4 24.3483C4 31.1741 9.52234 36.6966 16.3483 36.6966C19.2295 36.6966 21.8706 35.7019 23.963 34.0553C21.1161 31.8258 19.2639 28.2928 19.2639 24.3483Z" fill="#FF174F"/>
<path d="M43.961 24.3483C43.961 31.1741 38.4387 36.6966 31.6127 36.6966C28.7315 36.6966 26.0904 35.7019 23.998 34.0553C26.8793 31.7916 28.6973 28.2928 28.6973 24.3483C28.6973 20.4037 26.8449 16.905 23.998 14.6411C26.0902 12.9947 28.7315 12 31.6127 12C38.4387 12 43.9612 17.5567 43.9612 24.3483H43.961Z" fill="#F79E1B"/>
</svg>
