<svg width="48" height="48" viewBox="0 0 48 48" fill="none" xmlns="http://www.w3.org/2000/svg">
<path fill-rule="evenodd" clip-rule="evenodd" d="M13.8566 18V18.0054C13.8512 18.0054 12.1379 18 11.6811 19.6371C11.2623 21.1382 10.0821 25.2826 10.0494 25.3968H9.72311C9.72311 25.3968 8.5157 21.16 8.09147 19.6316C7.63461 17.9946 5.91595 18 5.91595 18H2V30.4549H5.91595V23.0581H6.07911H6.24227L8.52658 30.4549H11.246L13.5303 23.0635H13.8566V30.4549H17.7726V18H13.8566Z" fill="#009D52"/>
<path fill-rule="evenodd" clip-rule="evenodd" d="M28.1591 18C28.1591 18 27.0115 18.1033 26.4731 19.3053L23.6993 25.3968H23.373V18H19.457V30.4549H23.1554C23.1554 30.4549 24.3574 30.3461 24.8958 29.1496L27.6153 23.0581H27.9416V30.4549H31.8575V18H28.1591Z" fill="#009D52"/>
<path fill-rule="evenodd" clip-rule="evenodd" d="M33.5996 23.6562V30.4548H37.5156V26.4844H41.7578C43.607 26.4844 45.1734 25.3042 45.7554 23.6562H33.5996Z" fill="#009D52"/>
<path fill-rule="evenodd" clip-rule="evenodd" d="M41.7583 18H33.0508C33.4859 20.3713 35.2644 22.2749 37.565 22.8949C38.0871 23.0363 38.6364 23.1125 39.2021 23.1125H45.9136C45.9734 22.8297 46.0006 22.5414 46.0006 22.2423C46.0006 19.8981 44.1024 18 41.7583 18Z" fill="url(#paint0_linear_51_2981)"/>
<defs>
<linearGradient id="paint0_linear_51_2981" x1="33.0518" y1="20.5562" x2="46.0006" y2="20.5562" gradientUnits="userSpaceOnUse">
<stop offset="0.3" stop-color="#00B4E6"/>
<stop offset="1" stop-color="#088CCB"/>
</linearGradient>
</defs>
</svg>
