<svg width="48" height="48" viewBox="0 0 48 48" fill="none" xmlns="http://www.w3.org/2000/svg">
<path d="M18.7057 17.2509L12.945 30.9937H9.18678L6.35188 20.0257C6.18 19.3518 6.03064 19.1038 5.50763 18.8188C4.65272 18.3544 3.24094 17.92 2 17.6499L2.0837 17.2509H8.13439C8.90439 17.2509 9.59773 17.7636 9.77408 18.6514L11.272 26.6045L14.97 17.2509H18.7057ZM23.7864 17.2509L20.8468 30.9937H17.291L20.231 17.2509H23.7864ZM33.4313 26.5068C33.4461 22.8804 28.417 22.6791 28.4498 21.0588C28.4619 20.5662 28.9311 20.0418 29.9582 19.9078C30.467 19.842 31.8726 19.7895 33.4646 20.5231L34.0875 17.6071C33.2321 17.2977 32.1312 17 30.7619 17C27.2471 17 24.7746 18.8669 24.7549 21.5423C24.7318 23.5213 26.5209 24.6242 27.8663 25.2833C29.2522 25.9564 29.7169 26.389 29.7106 26.9906C29.7006 27.9127 28.6037 28.3209 27.5839 28.336C25.7958 28.3644 24.7592 27.8527 23.9323 27.4675L23.2869 30.4802C24.1188 30.8614 25.6519 31.1926 27.2398 31.2094C30.9764 31.2094 33.4203 29.3638 33.4313 26.5068ZM42.7126 30.9937H46L43.128 17.2509H40.0949C39.4108 17.2509 38.8359 17.648 38.5808 18.2583L33.2458 30.9937H36.9795L37.7201 28.9408H42.2817L42.7126 30.9937ZM38.744 26.1247L40.616 20.9638L41.6914 26.1247H38.7438H38.744Z" fill="#102CF2"/>
</svg>
